%TF.GenerationSoftware,KiCad,Pcbnew,5.99.0+really5.1.12+dfsg1-1*%
%TF.CreationDate,2021-11-19T11:23:09-05:00*%
%TF.ProjectId,N OR,4e204f52-2e6b-4696-9361-645f70636258,rev?*%
%TF.SameCoordinates,Original*%
%TF.FileFunction,Copper,L2,Bot*%
%TF.FilePolarity,Positive*%
%FSLAX46Y46*%
G04 Gerber Fmt 4.6, Leading zero omitted, Abs format (unit mm)*
G04 Created by KiCad (PCBNEW 5.99.0+really5.1.12+dfsg1-1) date 2021-11-19 11:23:09*
%MOMM*%
%LPD*%
G01*
G04 APERTURE LIST*
%TA.AperFunction,ComponentPad*%
%ADD10R,1.800000X1.800000*%
%TD*%
%TA.AperFunction,ComponentPad*%
%ADD11C,1.800000*%
%TD*%
%TA.AperFunction,ComponentPad*%
%ADD12C,1.600000*%
%TD*%
%TA.AperFunction,ComponentPad*%
%ADD13O,1.600000X1.600000*%
%TD*%
%TA.AperFunction,ComponentPad*%
%ADD14O,0.850000X0.850000*%
%TD*%
%TA.AperFunction,ComponentPad*%
%ADD15R,0.850000X0.850000*%
%TD*%
%TA.AperFunction,ComponentPad*%
%ADD16R,1.300000X1.300000*%
%TD*%
%TA.AperFunction,ComponentPad*%
%ADD17C,1.300000*%
%TD*%
%TA.AperFunction,Conductor*%
%ADD18C,0.250000*%
%TD*%
G04 APERTURE END LIST*
D10*
%TO.P,OR LED,1*%
%TO.N,N/C*%
X130810000Y-91440000D03*
D11*
%TO.P,OR LED,2*%
X130810000Y-88900000D03*
%TD*%
D12*
%TO.P,2.35k,1*%
%TO.N,N/C*%
X125730000Y-66040000D03*
D13*
%TO.P,2.35k,2*%
X125730000Y-76200000D03*
%TD*%
D14*
%TO.P,Input Header,4*%
%TO.N,N/C*%
X140160000Y-48260000D03*
%TO.P,Input Header,3*%
X139160000Y-48260000D03*
%TO.P,Input Header,2*%
X138160000Y-48260000D03*
D15*
%TO.P,Input Header,1*%
X137160000Y-48260000D03*
%TD*%
D14*
%TO.P,Output Header,4*%
%TO.N,N/C*%
X139575000Y-99006552D03*
%TO.P,Output Header,3*%
X138575000Y-99006552D03*
%TO.P,Output Header,2*%
X137575000Y-99006552D03*
D15*
%TO.P,Output Header,1*%
X136575000Y-99006552D03*
%TD*%
D13*
%TO.P,2.35k,2*%
%TO.N,N/C*%
X151130000Y-76200000D03*
D12*
%TO.P,2.35k,1*%
X151130000Y-66040000D03*
%TD*%
D13*
%TO.P,10k,2*%
%TO.N,N/C*%
X140970000Y-64770000D03*
D12*
%TO.P,10k,1*%
X140970000Y-54610000D03*
%TD*%
D13*
%TO.P,10k,2*%
%TO.N,N/C*%
X135890000Y-64770000D03*
D12*
%TO.P,10k,1*%
X135890000Y-54610000D03*
%TD*%
D11*
%TO.P,A LED,2*%
%TO.N,N/C*%
X133350000Y-69850000D03*
D10*
%TO.P,A LED,1*%
X133350000Y-72390000D03*
%TD*%
D11*
%TO.P,NOR LED,2*%
%TO.N,N/C*%
X146050000Y-88900000D03*
D10*
%TO.P,NOR LED,1*%
X146050000Y-91440000D03*
%TD*%
D11*
%TO.P,B LED,2*%
%TO.N,N/C*%
X143510000Y-69850000D03*
D10*
%TO.P,B LED,1*%
X143510000Y-72390000D03*
%TD*%
D16*
%TO.P,2N2222,1*%
%TO.N,N/C*%
X144780000Y-78740000D03*
D17*
%TO.P,2N2222,3*%
X142240000Y-78740000D03*
%TO.P,2N2222,2*%
X143510000Y-80010000D03*
%TD*%
D16*
%TO.P,2N2222,1*%
%TO.N,N/C*%
X134620000Y-78740000D03*
D17*
%TO.P,2N2222,3*%
X132080000Y-78740000D03*
%TO.P,2N2222,2*%
X133350000Y-80010000D03*
%TD*%
D18*
%TO.N,*%
X151130000Y-76200000D02*
X151130000Y-80010000D01*
X151130000Y-80010000D02*
X149860000Y-81280000D01*
X147320000Y-78740000D02*
X144780000Y-78740000D01*
X144780000Y-78740000D02*
X144780000Y-77470000D01*
X144780000Y-77470000D02*
X143510000Y-76200000D01*
X137160000Y-76200000D02*
X134620000Y-78740000D01*
X143510000Y-76200000D02*
X137160000Y-76200000D01*
X149860000Y-81280000D02*
X146050000Y-85090000D01*
X146050000Y-85090000D02*
X146050000Y-88900000D01*
X147320000Y-78740000D02*
X149860000Y-81280000D01*
%TD*%
M02*
