M48
; DRILL file {KiCad 5.99.0+really5.1.12+dfsg1-1} date Fri 19 Nov 2021 11:23:38 AM
; FORMAT={-:-/ absolute / metric / decimal}
; #@! TF.CreationDate,2021-11-19T11:23:38-05:00
; #@! TF.GenerationSoftware,Kicad,Pcbnew,5.99.0+really5.1.12+dfsg1-1
FMAT,2
METRIC
T1C0.500
T2C0.750
T3C0.800
T4C0.900
%
G90
G05
T1
X136.575Y-99.007
X137.16Y-48.26
X137.575Y-99.007
X138.16Y-48.26
X138.575Y-99.007
X139.16Y-48.26
X139.575Y-99.007
X140.16Y-48.26
T2
X132.08Y-78.74
X133.35Y-80.01
X134.62Y-78.74
X142.24Y-78.74
X143.51Y-80.01
X144.78Y-78.74
T3
X125.73Y-66.04
X125.73Y-76.2
X135.89Y-54.61
X135.89Y-64.77
X140.97Y-54.61
X140.97Y-64.77
X151.13Y-66.04
X151.13Y-76.2
T4
X130.81Y-88.9
X130.81Y-91.44
X133.35Y-69.85
X133.35Y-72.39
X143.51Y-69.85
X143.51Y-72.39
X146.05Y-88.9
X146.05Y-91.44
T0
M30
