%TF.GenerationSoftware,KiCad,Pcbnew,(5.1.10)-1*%
%TF.CreationDate,2021-11-19T11:23:01-05:00*%
%TF.ProjectId,N AND gate,4e20414e-4420-4676-9174-652e6b696361,rev?*%
%TF.SameCoordinates,Original*%
%TF.FileFunction,Copper,L1,Top*%
%TF.FilePolarity,Positive*%
%FSLAX46Y46*%
G04 Gerber Fmt 4.6, Leading zero omitted, Abs format (unit mm)*
G04 Created by KiCad (PCBNEW (5.1.10)-1) date 2021-11-19 11:23:01*
%MOMM*%
%LPD*%
G01*
G04 APERTURE LIST*
%TA.AperFunction,ComponentPad*%
%ADD10C,1.800000*%
%TD*%
%TA.AperFunction,ComponentPad*%
%ADD11R,1.800000X1.800000*%
%TD*%
%TA.AperFunction,ComponentPad*%
%ADD12O,0.850000X0.850000*%
%TD*%
%TA.AperFunction,ComponentPad*%
%ADD13R,0.850000X0.850000*%
%TD*%
%TA.AperFunction,ComponentPad*%
%ADD14O,1.600000X1.600000*%
%TD*%
%TA.AperFunction,ComponentPad*%
%ADD15C,1.600000*%
%TD*%
%TA.AperFunction,ComponentPad*%
%ADD16R,1.300000X1.300000*%
%TD*%
%TA.AperFunction,ComponentPad*%
%ADD17C,1.300000*%
%TD*%
%TA.AperFunction,Conductor*%
%ADD18C,0.250000*%
%TD*%
G04 APERTURE END LIST*
D10*
%TO.P,NAND LED,2*%
%TO.N,N/C*%
X176530000Y-106680000D03*
D11*
%TO.P,NAND LED,1*%
X176530000Y-109220000D03*
%TD*%
D10*
%TO.P,AND LED,2*%
%TO.N,N/C*%
X167640000Y-106680000D03*
D11*
%TO.P,AND LED,1*%
X167640000Y-109220000D03*
%TD*%
D12*
%TO.P,Output Header,4*%
%TO.N,N/C*%
X173180000Y-116840000D03*
%TO.P,Output Header,3*%
X172180000Y-116840000D03*
%TO.P,Output Header,2*%
X171180000Y-116840000D03*
D13*
%TO.P,Output Header,1*%
X170180000Y-116840000D03*
%TD*%
D12*
%TO.P,Input Header,4*%
%TO.N,N/C*%
X173180000Y-63500000D03*
%TO.P,Input Header,3*%
X172180000Y-63500000D03*
%TO.P,Input Header,2*%
X171180000Y-63500000D03*
D13*
%TO.P,Input Header,1*%
X170180000Y-63500000D03*
%TD*%
D14*
%TO.P,2.5k,2*%
%TO.N,N/C*%
X184150000Y-78740000D03*
D15*
%TO.P,2.5k,1*%
X184150000Y-88900000D03*
%TD*%
D14*
%TO.P,2.5k,2*%
%TO.N,N/C*%
X160020000Y-78740000D03*
D15*
%TO.P,2.5k,1*%
X160020000Y-88900000D03*
%TD*%
D14*
%TO.P,10k,2*%
%TO.N,N/C*%
X167640000Y-71120000D03*
D15*
%TO.P,10k,1*%
X167640000Y-81280000D03*
%TD*%
D14*
%TO.P,10k,2*%
%TO.N,N/C*%
X176530000Y-71120000D03*
D15*
%TO.P,10k,1*%
X176530000Y-81280000D03*
%TD*%
D10*
%TO.P,A LED,2*%
%TO.N,N/C*%
X167640000Y-87630000D03*
D11*
%TO.P,A LED,1*%
X167640000Y-90170000D03*
%TD*%
D10*
%TO.P,B LED,2*%
%TO.N,N/C*%
X176530000Y-87630000D03*
D11*
%TO.P,B LED,1*%
X176530000Y-90170000D03*
%TD*%
D16*
%TO.P,2N2222,1*%
%TO.N,N/C*%
X170180000Y-97790000D03*
D17*
%TO.P,2N2222,3*%
X167640000Y-97790000D03*
%TO.P,2N2222,2*%
X168910000Y-99060000D03*
%TD*%
D16*
%TO.P,2N2222,1*%
%TO.N,N/C*%
X176530000Y-97790000D03*
D17*
%TO.P,2N2222,3*%
X173990000Y-97790000D03*
%TO.P,2N2222,2*%
X175260000Y-99060000D03*
%TD*%
D18*
%TO.N,*%
X171180000Y-63500000D02*
X171180000Y-65040000D01*
X167640000Y-68580000D02*
X167640000Y-71120000D01*
X171180000Y-65040000D02*
X167640000Y-68580000D01*
X172180000Y-63500000D02*
X172180000Y-65500000D01*
X176530000Y-69850000D02*
X176530000Y-71120000D01*
X172180000Y-65500000D02*
X176530000Y-69850000D01*
X173180000Y-63500000D02*
X179070000Y-63500000D01*
X184150000Y-68580000D02*
X184150000Y-78740000D01*
X179070000Y-63500000D02*
X184150000Y-68580000D01*
X176530000Y-87630000D02*
X176530000Y-81280000D01*
X167640000Y-81280000D02*
X167640000Y-87630000D01*
X176530000Y-106680000D02*
X184150000Y-99060000D01*
X160020000Y-78740000D02*
X160020000Y-68580000D01*
X160020000Y-68580000D02*
X165100000Y-63500000D01*
X165100000Y-63500000D02*
X170180000Y-63500000D01*
X160020000Y-99060000D02*
X167640000Y-106680000D01*
X160020000Y-96520000D02*
X160020000Y-99060000D01*
X167640000Y-109220000D02*
X167640000Y-111760000D01*
X171180000Y-115300000D02*
X171180000Y-116840000D01*
X167640000Y-111760000D02*
X171180000Y-115300000D01*
X176530000Y-109220000D02*
X176530000Y-110490000D01*
X172180000Y-114840000D02*
X172180000Y-116840000D01*
X176530000Y-110490000D02*
X172180000Y-114840000D01*
X165100000Y-116840000D02*
X170180000Y-116840000D01*
X157480000Y-109220000D02*
X165100000Y-116840000D01*
X157480000Y-71120000D02*
X157480000Y-109220000D01*
X160020000Y-68580000D02*
X157480000Y-71120000D01*
X179070000Y-116840000D02*
X173180000Y-116840000D01*
X186690000Y-109220000D02*
X179070000Y-116840000D01*
X186690000Y-71120000D02*
X186690000Y-109220000D01*
X184150000Y-68580000D02*
X186690000Y-71120000D01*
X175260000Y-91440000D02*
X176530000Y-90170000D01*
X175260000Y-99060000D02*
X175260000Y-91440000D01*
X168910000Y-99060000D02*
X168910000Y-91440000D01*
X168910000Y-91440000D02*
X167640000Y-90170000D01*
X173990000Y-97790000D02*
X170180000Y-97790000D01*
X181610000Y-97790000D02*
X184150000Y-95250000D01*
X176530000Y-97790000D02*
X181610000Y-97790000D01*
X184150000Y-95250000D02*
X184150000Y-99060000D01*
X184150000Y-88900000D02*
X184150000Y-95250000D01*
X167640000Y-97790000D02*
X162560000Y-97790000D01*
X162560000Y-97790000D02*
X160020000Y-95250000D01*
X160020000Y-95250000D02*
X160020000Y-96520000D01*
X160020000Y-88900000D02*
X160020000Y-95250000D01*
%TD*%
M02*
