%TF.GenerationSoftware,KiCad,Pcbnew,(5.1.10)-1*%
%TF.CreationDate,2021-11-19T11:23:01-05:00*%
%TF.ProjectId,N AND gate,4e20414e-4420-4676-9174-652e6b696361,rev?*%
%TF.SameCoordinates,Original*%
%TF.FileFunction,Legend,Bot*%
%TF.FilePolarity,Positive*%
%FSLAX46Y46*%
G04 Gerber Fmt 4.6, Leading zero omitted, Abs format (unit mm)*
G04 Created by KiCad (PCBNEW (5.1.10)-1) date 2021-11-19 11:23:01*
%MOMM*%
%LPD*%
G01*
G04 APERTURE LIST*
%ADD10C,0.010000*%
G04 APERTURE END LIST*
D10*
%TO.C,G\u002A\u002A\u002A*%
G36*
X163363292Y-72585625D02*
G01*
X163441719Y-72578924D01*
X163481424Y-72566088D01*
X163491333Y-72548242D01*
X163517348Y-72503444D01*
X163592989Y-72478964D01*
X163662974Y-72474667D01*
X163721416Y-72466282D01*
X163745333Y-72446445D01*
X163770370Y-72428772D01*
X163832917Y-72418942D01*
X163858222Y-72418223D01*
X163928909Y-72411690D01*
X163968230Y-72395370D01*
X163971111Y-72388763D01*
X163992419Y-72366898D01*
X164008345Y-72367597D01*
X164056535Y-72361399D01*
X164127674Y-72335495D01*
X164142400Y-72328592D01*
X164250741Y-72277155D01*
X164354835Y-72230250D01*
X164439726Y-72194402D01*
X164490458Y-72176139D01*
X164493222Y-72175502D01*
X164575149Y-72149186D01*
X164658661Y-72108473D01*
X164707564Y-72073793D01*
X164759029Y-72036205D01*
X164833695Y-71994370D01*
X164846000Y-71988408D01*
X164925535Y-71941647D01*
X164988852Y-71889297D01*
X164993890Y-71883646D01*
X165043216Y-71840038D01*
X165079521Y-71825556D01*
X165112908Y-71806450D01*
X165175755Y-71754604D01*
X165258672Y-71678225D01*
X165340853Y-71597162D01*
X165441940Y-71495058D01*
X165538383Y-71398679D01*
X165617480Y-71320667D01*
X165657388Y-71282183D01*
X165713282Y-71221872D01*
X165745774Y-71172208D01*
X165749111Y-71159399D01*
X165770077Y-71115853D01*
X165801763Y-71086322D01*
X165842654Y-71033734D01*
X165878707Y-70947538D01*
X165900882Y-70850411D01*
X165902740Y-70833075D01*
X165921455Y-70797451D01*
X165925500Y-70793093D01*
X165941016Y-70751731D01*
X165946666Y-70691568D01*
X165960805Y-70620543D01*
X165996166Y-70539917D01*
X166042162Y-70467744D01*
X166088209Y-70422077D01*
X166108944Y-70414794D01*
X166141741Y-70396616D01*
X166144222Y-70386223D01*
X166166687Y-70360338D01*
X166181499Y-70358000D01*
X166215881Y-70339246D01*
X166276670Y-70290446D01*
X166352174Y-70222794D01*
X166430699Y-70147482D01*
X166500554Y-70075705D01*
X166550046Y-70018656D01*
X166567555Y-69988416D01*
X166585745Y-69954878D01*
X166630316Y-69902835D01*
X166638111Y-69894899D01*
X166685464Y-69839866D01*
X166708294Y-69798244D01*
X166708666Y-69794839D01*
X166729372Y-69766403D01*
X166736888Y-69765334D01*
X166761261Y-69741996D01*
X166766008Y-69715945D01*
X166783190Y-69654826D01*
X166808342Y-69611773D01*
X166841757Y-69541532D01*
X166849777Y-69493494D01*
X166861029Y-69435891D01*
X166878000Y-69412556D01*
X166901708Y-69372749D01*
X166906222Y-69340335D01*
X166918361Y-69295387D01*
X166934444Y-69285556D01*
X166959482Y-69262697D01*
X166962666Y-69243223D01*
X166979032Y-69205683D01*
X166993020Y-69200889D01*
X167011089Y-69175068D01*
X167016793Y-69105311D01*
X167015620Y-69074807D01*
X167014986Y-68994316D01*
X167022476Y-68939288D01*
X167027600Y-68928993D01*
X167039722Y-68887422D01*
X167045804Y-68799476D01*
X167045821Y-68674902D01*
X167039746Y-68523446D01*
X167029081Y-68372592D01*
X167014937Y-68250329D01*
X166997031Y-68179881D01*
X166974187Y-68156681D01*
X166973522Y-68156667D01*
X166949034Y-68136821D01*
X166952460Y-68114334D01*
X166951219Y-68078088D01*
X166937463Y-68072000D01*
X166912092Y-68048392D01*
X166906222Y-68015556D01*
X166895769Y-67969675D01*
X166881291Y-67959112D01*
X166854363Y-67933840D01*
X166828140Y-67869165D01*
X166809612Y-67783135D01*
X166778052Y-67712563D01*
X166714029Y-67641756D01*
X166637210Y-67592117D01*
X166632295Y-67590154D01*
X166610174Y-67579623D01*
X166593857Y-67562094D01*
X166582287Y-67529543D01*
X166574403Y-67473946D01*
X166569146Y-67387279D01*
X166565458Y-67261519D01*
X166562278Y-67088641D01*
X166561740Y-67055692D01*
X166560052Y-66891286D01*
X166560435Y-66746674D01*
X166562710Y-66631198D01*
X166566703Y-66554197D01*
X166571753Y-66525356D01*
X166588109Y-66479585D01*
X166601794Y-66386052D01*
X166612783Y-66253378D01*
X166621053Y-66090184D01*
X166626580Y-65905089D01*
X166629339Y-65706715D01*
X166629307Y-65503682D01*
X166626460Y-65304610D01*
X166620774Y-65118121D01*
X166612225Y-64952834D01*
X166600788Y-64817371D01*
X166586441Y-64720351D01*
X166576868Y-64685334D01*
X166568964Y-64634962D01*
X166565452Y-64549916D01*
X166566232Y-64480723D01*
X166564492Y-64383246D01*
X166552583Y-64327866D01*
X166541329Y-64318445D01*
X166518618Y-64294306D01*
X166511111Y-64247889D01*
X166501450Y-64194851D01*
X166482888Y-64177334D01*
X166459958Y-64153696D01*
X166454666Y-64120889D01*
X166466485Y-64075029D01*
X166482888Y-64064445D01*
X166507927Y-64041586D01*
X166511111Y-64022112D01*
X166495871Y-63984554D01*
X166482888Y-63979778D01*
X166462921Y-63955293D01*
X166454666Y-63896777D01*
X166445967Y-63831601D01*
X166426444Y-63796334D01*
X166409983Y-63760123D01*
X166399813Y-63687605D01*
X166398222Y-63641112D01*
X166393885Y-63558237D01*
X166382847Y-63501739D01*
X166375166Y-63489083D01*
X166365812Y-63456259D01*
X166360850Y-63381106D01*
X166360987Y-63277618D01*
X166362428Y-63235931D01*
X166364360Y-63108371D01*
X166358073Y-63020190D01*
X166344174Y-62979471D01*
X166343150Y-62978738D01*
X166323122Y-62940584D01*
X166313667Y-62871838D01*
X166313555Y-62863335D01*
X166306354Y-62798710D01*
X166288684Y-62766909D01*
X166285333Y-62766223D01*
X166264118Y-62742071D01*
X166257111Y-62695667D01*
X166247450Y-62642629D01*
X166228888Y-62625112D01*
X166214638Y-62598865D01*
X166204716Y-62527896D01*
X166200687Y-62423858D01*
X166200666Y-62415111D01*
X166197123Y-62311356D01*
X166187767Y-62231017D01*
X166174513Y-62189509D01*
X166172444Y-62187667D01*
X166156529Y-62151730D01*
X166146294Y-62078497D01*
X166144222Y-62021372D01*
X166140641Y-61933676D01*
X166131465Y-61870533D01*
X166123893Y-61852190D01*
X166112148Y-61812540D01*
X166111188Y-61743812D01*
X166111623Y-61738324D01*
X166105945Y-61660277D01*
X166075983Y-61628017D01*
X166046016Y-61592305D01*
X166048939Y-61567847D01*
X166048259Y-61530953D01*
X166034352Y-61524445D01*
X166006654Y-61501635D01*
X166003111Y-61482112D01*
X165987871Y-61444554D01*
X165974888Y-61439778D01*
X165951958Y-61416141D01*
X165946666Y-61383334D01*
X165934847Y-61337474D01*
X165918444Y-61326889D01*
X165895287Y-61303326D01*
X165890222Y-61272111D01*
X165876539Y-61217590D01*
X165860510Y-61198969D01*
X165839417Y-61161134D01*
X165841163Y-61149510D01*
X165828241Y-61113384D01*
X165783442Y-61059904D01*
X165761316Y-61039208D01*
X165671104Y-60960000D01*
X163776190Y-60960000D01*
X163725484Y-61031486D01*
X163677877Y-61096684D01*
X163614736Y-61180831D01*
X163583329Y-61221986D01*
X163528238Y-61308613D01*
X163495844Y-61389346D01*
X163491607Y-61418612D01*
X163482551Y-61474941D01*
X163463111Y-61496223D01*
X163444330Y-61521002D01*
X163435088Y-61581803D01*
X163434888Y-61593335D01*
X163426628Y-61664211D01*
X163406476Y-61707654D01*
X163403823Y-61709647D01*
X163386008Y-61748424D01*
X163388183Y-61805974D01*
X163390197Y-61872404D01*
X163375025Y-61911686D01*
X163365653Y-61948949D01*
X163360094Y-62029228D01*
X163358204Y-62139232D01*
X163359840Y-62265671D01*
X163364861Y-62395255D01*
X163373124Y-62514692D01*
X163382383Y-62596889D01*
X163392555Y-62667445D01*
X163089166Y-62675455D01*
X162785777Y-62683466D01*
X162785777Y-62194266D01*
X162784366Y-62032793D01*
X162780453Y-61890635D01*
X162774522Y-61777540D01*
X162767056Y-61703259D01*
X162760230Y-61678256D01*
X162746340Y-61639018D01*
X162732357Y-61558930D01*
X162720836Y-61453521D01*
X162718684Y-61425667D01*
X162708516Y-61299304D01*
X162696713Y-61177829D01*
X162685686Y-61085872D01*
X162684822Y-61079945D01*
X162666960Y-60960000D01*
X161529888Y-60960530D01*
X161685111Y-61048954D01*
X161797828Y-61119469D01*
X161915525Y-61202632D01*
X161973738Y-61248328D01*
X162107143Y-61359278D01*
X162101149Y-61999251D01*
X162101265Y-62330794D01*
X162108424Y-62607581D01*
X162122741Y-62830872D01*
X162144331Y-63001928D01*
X162173311Y-63122012D01*
X162209796Y-63192383D01*
X162210812Y-63193524D01*
X162326254Y-63281707D01*
X162477492Y-63336213D01*
X162492287Y-63339200D01*
X162525804Y-63344397D01*
X162563212Y-63346431D01*
X162612384Y-63344413D01*
X162681196Y-63337457D01*
X162777522Y-63324675D01*
X162909236Y-63305182D01*
X163084214Y-63278089D01*
X163209111Y-63258468D01*
X163321132Y-63242893D01*
X163437194Y-63231630D01*
X163567177Y-63224346D01*
X163720963Y-63220707D01*
X163908434Y-63220377D01*
X164139472Y-63223024D01*
X164218055Y-63224336D01*
X164411895Y-63227038D01*
X164585680Y-63228100D01*
X164731892Y-63227589D01*
X164843015Y-63225570D01*
X164911534Y-63222107D01*
X164930666Y-63218135D01*
X164907061Y-63177958D01*
X164842908Y-63118950D01*
X164748202Y-63047410D01*
X164632936Y-62969639D01*
X164507105Y-62891935D01*
X164380702Y-62820598D01*
X164263721Y-62761927D01*
X164166157Y-62722222D01*
X164126333Y-62711145D01*
X164081748Y-62698977D01*
X164054970Y-62676626D01*
X164039631Y-62630650D01*
X164029364Y-62547607D01*
X164024914Y-62497053D01*
X164010743Y-62374320D01*
X163990832Y-62253801D01*
X163973078Y-62175563D01*
X163956626Y-62080370D01*
X163953864Y-61975976D01*
X163963478Y-61880474D01*
X163984155Y-61811958D01*
X164000963Y-61791548D01*
X164021590Y-61753476D01*
X164027555Y-61706795D01*
X164042152Y-61607334D01*
X164079799Y-61509974D01*
X164131278Y-61432768D01*
X164187365Y-61393772D01*
X164237071Y-61388841D01*
X164332692Y-61385784D01*
X164463727Y-61384699D01*
X164619674Y-61385682D01*
X164769809Y-61388351D01*
X164973483Y-61393959D01*
X165128697Y-61402050D01*
X165243435Y-61415489D01*
X165325679Y-61437139D01*
X165383413Y-61469862D01*
X165424619Y-61516520D01*
X165457281Y-61579978D01*
X165482288Y-61643857D01*
X165504144Y-61710399D01*
X165518952Y-61779364D01*
X165527673Y-61862614D01*
X165531265Y-61972010D01*
X165530688Y-62119414D01*
X165528944Y-62220784D01*
X165526277Y-62392421D01*
X165527506Y-62524200D01*
X165534746Y-62632681D01*
X165550108Y-62734423D01*
X165575705Y-62845986D01*
X165613650Y-62983927D01*
X165636343Y-63062556D01*
X165710001Y-63337225D01*
X165762745Y-63586476D01*
X165799622Y-63835014D01*
X165806438Y-63895112D01*
X165822592Y-64029034D01*
X165839879Y-64145672D01*
X165856095Y-64231506D01*
X165867714Y-64270800D01*
X165890810Y-64344893D01*
X165911379Y-64468229D01*
X165929162Y-64633655D01*
X165943901Y-64834015D01*
X165955339Y-65062155D01*
X165963217Y-65310919D01*
X165967277Y-65573153D01*
X165967261Y-65841702D01*
X165962911Y-66109412D01*
X165953969Y-66369126D01*
X165947819Y-66491556D01*
X165937234Y-66671455D01*
X165926596Y-66836352D01*
X165916617Y-66976363D01*
X165908009Y-67081605D01*
X165901484Y-67142193D01*
X165900561Y-67147723D01*
X165883012Y-67197117D01*
X165848194Y-67220441D01*
X165787020Y-67217984D01*
X165690406Y-67190036D01*
X165601503Y-67157263D01*
X165496192Y-67118011D01*
X165400166Y-67085955D01*
X165301296Y-67058084D01*
X165187451Y-67031386D01*
X165046500Y-67002849D01*
X164866312Y-66969463D01*
X164789555Y-66955686D01*
X164634198Y-66927103D01*
X164489617Y-66898971D01*
X164369317Y-66874024D01*
X164286802Y-66854999D01*
X164270517Y-66850589D01*
X164203283Y-66839269D01*
X164091470Y-66829674D01*
X163946930Y-66822476D01*
X163781519Y-66818352D01*
X163691961Y-66817647D01*
X163514123Y-66817924D01*
X163379721Y-66820501D01*
X163275754Y-66826804D01*
X163189219Y-66838261D01*
X163107115Y-66856297D01*
X163016440Y-66882341D01*
X162969904Y-66896885D01*
X162840135Y-66939955D01*
X162714462Y-66985076D01*
X162614150Y-67024507D01*
X162588904Y-67035561D01*
X162477609Y-67092517D01*
X162352772Y-67165629D01*
X162229362Y-67245137D01*
X162122344Y-67321278D01*
X162046685Y-67384290D01*
X162033624Y-67397731D01*
X161974952Y-67478026D01*
X161905441Y-67596121D01*
X161833053Y-67736598D01*
X161765748Y-67884035D01*
X161712808Y-68019224D01*
X161676859Y-68115832D01*
X161644456Y-68192818D01*
X161623635Y-68231880D01*
X161600975Y-68288605D01*
X161581037Y-68392216D01*
X161564117Y-68533207D01*
X161550507Y-68702070D01*
X161540503Y-68889300D01*
X161534396Y-69085391D01*
X161533057Y-69222147D01*
X162089550Y-69222147D01*
X162105061Y-69080162D01*
X162124043Y-68976606D01*
X162141455Y-68844547D01*
X162153639Y-68711885D01*
X162153964Y-68707000D01*
X162171354Y-68540608D01*
X162204072Y-68406187D01*
X162259507Y-68290382D01*
X162345049Y-68179837D01*
X162468088Y-68061194D01*
X162549898Y-67991404D01*
X162776386Y-67812914D01*
X162971096Y-67680144D01*
X163133767Y-67593258D01*
X163229035Y-67559675D01*
X163407497Y-67516376D01*
X163553234Y-67487059D01*
X163687420Y-67468951D01*
X163831229Y-67459276D01*
X164005835Y-67455261D01*
X164027555Y-67455048D01*
X164256149Y-67457625D01*
X164449056Y-67470935D01*
X164626289Y-67496557D01*
X164676666Y-67506324D01*
X164803456Y-67533226D01*
X164918326Y-67559451D01*
X165003784Y-67580927D01*
X165029444Y-67588426D01*
X165103425Y-67611178D01*
X165205690Y-67641179D01*
X165283444Y-67663303D01*
X165362375Y-67685657D01*
X165423898Y-67704553D01*
X165482230Y-67725404D01*
X165551589Y-67753622D01*
X165646194Y-67794620D01*
X165757883Y-67843915D01*
X165908230Y-67927993D01*
X166063811Y-68044814D01*
X166209485Y-68180525D01*
X166330113Y-68321276D01*
X166400082Y-68431449D01*
X166450639Y-68580027D01*
X166472229Y-68759563D01*
X166464807Y-68952548D01*
X166428330Y-69141471D01*
X166402042Y-69221505D01*
X166323660Y-69374297D01*
X166205642Y-69535801D01*
X166060008Y-69691972D01*
X165898776Y-69828763D01*
X165856703Y-69858792D01*
X165717088Y-69940328D01*
X165545519Y-70019744D01*
X165365937Y-70087062D01*
X165202284Y-70132301D01*
X165198777Y-70133027D01*
X165091526Y-70157456D01*
X164981796Y-70185872D01*
X164973000Y-70188353D01*
X164811558Y-70232079D01*
X164680025Y-70260536D01*
X164556127Y-70276772D01*
X164417588Y-70283833D01*
X164267444Y-70284884D01*
X164110485Y-70281211D01*
X163951375Y-70272226D01*
X163811372Y-70259392D01*
X163731222Y-70248033D01*
X163605485Y-70225668D01*
X163478226Y-70203536D01*
X163392555Y-70189032D01*
X163204795Y-70157526D01*
X163063295Y-70132655D01*
X162958511Y-70112577D01*
X162880898Y-70095451D01*
X162820912Y-70079435D01*
X162814186Y-70077421D01*
X162717326Y-70056322D01*
X162623055Y-70047556D01*
X162551464Y-70034811D01*
X162475179Y-69991030D01*
X162399870Y-69927612D01*
X162271336Y-69778441D01*
X162173446Y-69601579D01*
X162111187Y-69411367D01*
X162089550Y-69222147D01*
X161533057Y-69222147D01*
X161532482Y-69280835D01*
X161535053Y-69466127D01*
X161542405Y-69631760D01*
X161554830Y-69768228D01*
X161572622Y-69866024D01*
X161573085Y-69867700D01*
X161608576Y-69982126D01*
X161648116Y-70072354D01*
X161703718Y-70161814D01*
X161769526Y-70250772D01*
X161878305Y-70372562D01*
X162001481Y-70467218D01*
X162151505Y-70541860D01*
X162340827Y-70603608D01*
X162423336Y-70624614D01*
X162549986Y-70652577D01*
X162659257Y-70672143D01*
X162737813Y-70681197D01*
X162769417Y-70679514D01*
X162827952Y-70679821D01*
X162850605Y-70691913D01*
X162908989Y-70721416D01*
X163008406Y-70745670D01*
X163151694Y-70764934D01*
X163341692Y-70779465D01*
X163581238Y-70789524D01*
X163873172Y-70795368D01*
X163999333Y-70796543D01*
X164261451Y-70798326D01*
X164472622Y-70799938D01*
X164638342Y-70801716D01*
X164764105Y-70803993D01*
X164855407Y-70807104D01*
X164917742Y-70811384D01*
X164956607Y-70817169D01*
X164977496Y-70824792D01*
X164985905Y-70834589D01*
X164987329Y-70846895D01*
X164987111Y-70856725D01*
X164967847Y-70893368D01*
X164915203Y-70959728D01*
X164836897Y-71046834D01*
X164740649Y-71145716D01*
X164726055Y-71160114D01*
X164574620Y-71299996D01*
X164425624Y-71416744D01*
X164266332Y-71517993D01*
X164084007Y-71611380D01*
X163865911Y-71704540D01*
X163731222Y-71756524D01*
X163449000Y-71862554D01*
X162503555Y-71865221D01*
X162236465Y-71865575D01*
X162019868Y-71864827D01*
X161847821Y-71862753D01*
X161714379Y-71859129D01*
X161613598Y-71853731D01*
X161539535Y-71846336D01*
X161486245Y-71836719D01*
X161450040Y-71825556D01*
X161385197Y-71790380D01*
X161289362Y-71726423D01*
X161173706Y-71642428D01*
X161049403Y-71547138D01*
X160927624Y-71449296D01*
X160819543Y-71357645D01*
X160736332Y-71280927D01*
X160692681Y-71232889D01*
X160658479Y-71168343D01*
X160621806Y-71071244D01*
X160594928Y-70978889D01*
X160565929Y-70877933D01*
X160535275Y-70795412D01*
X160511738Y-70752346D01*
X160467169Y-70683963D01*
X160416589Y-70581175D01*
X160368478Y-70464128D01*
X160331317Y-70352967D01*
X160316030Y-70287445D01*
X160301949Y-70207536D01*
X160280361Y-70092957D01*
X160255178Y-69964315D01*
X160246396Y-69920556D01*
X160220492Y-69786886D01*
X160196866Y-69655318D01*
X160179616Y-69548950D01*
X160176302Y-69525445D01*
X160155159Y-69413493D01*
X160122511Y-69287739D01*
X160103913Y-69229112D01*
X160085744Y-69173992D01*
X160069693Y-69117712D01*
X160055639Y-69056629D01*
X160043462Y-68987100D01*
X160033042Y-68905482D01*
X160024260Y-68808132D01*
X160016995Y-68691407D01*
X160011127Y-68551664D01*
X160006538Y-68385261D01*
X160003106Y-68188554D01*
X160000711Y-67957901D01*
X159999235Y-67689658D01*
X159998556Y-67380184D01*
X159998556Y-67025834D01*
X159999114Y-66622967D01*
X160000109Y-66167939D01*
X160000320Y-66082334D01*
X160001455Y-65640062D01*
X160002573Y-65250339D01*
X160003766Y-64909271D01*
X160005122Y-64612962D01*
X160006734Y-64357519D01*
X160008692Y-64139046D01*
X160011086Y-63953648D01*
X160014006Y-63797431D01*
X160017544Y-63666500D01*
X160021789Y-63556959D01*
X160026833Y-63464914D01*
X160032765Y-63386470D01*
X160039677Y-63317733D01*
X160047658Y-63254807D01*
X160056800Y-63193798D01*
X160067193Y-63130811D01*
X160069197Y-63119000D01*
X160095339Y-62940663D01*
X160116095Y-62751640D01*
X160129116Y-62576042D01*
X160132390Y-62469889D01*
X160138140Y-62319867D01*
X160153006Y-62140927D01*
X160174485Y-61959390D01*
X160191401Y-61849000D01*
X160214729Y-61699572D01*
X160233403Y-61553757D01*
X160245319Y-61429744D01*
X160248562Y-61355112D01*
X160251657Y-61262330D01*
X160260731Y-61190814D01*
X160268870Y-61165593D01*
X160303830Y-61137276D01*
X160375413Y-61095425D01*
X160468426Y-61048887D01*
X160472614Y-61046944D01*
X160655000Y-60962591D01*
X160139944Y-60961296D01*
X159957444Y-60961197D01*
X159823835Y-60962440D01*
X159731569Y-60965748D01*
X159673096Y-60971849D01*
X159640867Y-60981466D01*
X159627333Y-60995327D01*
X159624888Y-61010800D01*
X159608890Y-61071363D01*
X159594207Y-61092282D01*
X159578789Y-61126348D01*
X159594207Y-61141925D01*
X159611126Y-61177091D01*
X159621196Y-61244916D01*
X159624273Y-61326524D01*
X159620215Y-61403040D01*
X159608881Y-61455586D01*
X159596666Y-61468000D01*
X159581918Y-61493920D01*
X159571821Y-61562580D01*
X159568444Y-61651445D01*
X159564456Y-61747306D01*
X159553893Y-61812937D01*
X159540222Y-61834889D01*
X159529097Y-61862380D01*
X159520539Y-61942016D01*
X159514806Y-62069548D01*
X159512155Y-62240725D01*
X159512000Y-62300556D01*
X159512000Y-62766223D01*
X159004000Y-62766223D01*
X158809888Y-62767754D01*
X158659041Y-62772209D01*
X158555238Y-62779378D01*
X158502264Y-62789049D01*
X158496000Y-62794445D01*
X158474143Y-62821363D01*
X158464783Y-62822667D01*
X158426996Y-62842937D01*
X158379164Y-62891837D01*
X158378068Y-62893223D01*
X158327318Y-62942846D01*
X158282643Y-62963776D01*
X158282284Y-62963778D01*
X158246061Y-62979688D01*
X158242000Y-62992000D01*
X158219141Y-63017039D01*
X158199666Y-63020223D01*
X158162109Y-63035462D01*
X158157333Y-63048445D01*
X158134474Y-63073483D01*
X158115000Y-63076667D01*
X158077427Y-63090897D01*
X158072666Y-63102988D01*
X158049374Y-63131649D01*
X158016222Y-63147223D01*
X157970457Y-63178584D01*
X157959777Y-63205569D01*
X157943918Y-63241889D01*
X157931555Y-63246000D01*
X157908398Y-63269563D01*
X157903333Y-63300779D01*
X157889439Y-63355443D01*
X157873187Y-63374190D01*
X157854172Y-63412849D01*
X157857396Y-63430232D01*
X157856908Y-63477962D01*
X157837336Y-63540494D01*
X157808582Y-63593420D01*
X157783388Y-63612669D01*
X157765999Y-63636493D01*
X157762222Y-63667668D01*
X157749262Y-63721695D01*
X157734000Y-63739889D01*
X157716852Y-63776445D01*
X157706840Y-63848002D01*
X157705777Y-63882666D01*
X157700102Y-63957826D01*
X157685762Y-64002563D01*
X157677555Y-64008000D01*
X157661223Y-64033333D01*
X157651033Y-64097891D01*
X157649333Y-64144408D01*
X157645936Y-64227754D01*
X157637305Y-64285472D01*
X157631552Y-64298597D01*
X157618583Y-64335522D01*
X157607322Y-64406866D01*
X157604465Y-64437356D01*
X157587786Y-64621579D01*
X157569637Y-64762750D01*
X157550734Y-64856235D01*
X157533842Y-64895589D01*
X157523468Y-64932563D01*
X157515837Y-65010480D01*
X157510935Y-65116725D01*
X157508749Y-65238680D01*
X157509266Y-65363730D01*
X157512472Y-65479257D01*
X157518356Y-65572645D01*
X157521196Y-65592135D01*
X158195622Y-65592135D01*
X158198554Y-65285076D01*
X158207863Y-64985755D01*
X158223174Y-64706392D01*
X158244111Y-64459206D01*
X158269397Y-64262000D01*
X158287815Y-64137376D01*
X158305789Y-64000934D01*
X158312301Y-63945956D01*
X158344345Y-63799605D01*
X158408686Y-63690932D01*
X158514867Y-63605961D01*
X158562167Y-63580001D01*
X158650955Y-63530761D01*
X158729802Y-63480331D01*
X158747900Y-63466995D01*
X158786495Y-63442699D01*
X158835178Y-63427697D01*
X158906449Y-63420439D01*
X159012807Y-63419376D01*
X159114789Y-63421485D01*
X159413222Y-63429445D01*
X159402777Y-63697556D01*
X159397208Y-63825468D01*
X159391136Y-63941082D01*
X159385546Y-64026423D01*
X159383433Y-64050334D01*
X159367584Y-64235563D01*
X159353685Y-64466243D01*
X159341788Y-64734473D01*
X159331950Y-65032352D01*
X159324223Y-65351979D01*
X159318662Y-65685454D01*
X159315322Y-66024875D01*
X159314257Y-66362341D01*
X159315521Y-66689952D01*
X159319169Y-66999807D01*
X159325255Y-67284004D01*
X159333833Y-67534644D01*
X159344958Y-67743824D01*
X159357027Y-67888556D01*
X159380214Y-68128261D01*
X159393868Y-68320233D01*
X159397929Y-68462484D01*
X159392339Y-68553027D01*
X159377944Y-68589394D01*
X159343217Y-68592751D01*
X159263536Y-68592788D01*
X159150277Y-68589705D01*
X159014822Y-68583701D01*
X158996125Y-68582714D01*
X158635472Y-68563310D01*
X158534350Y-68462188D01*
X158444066Y-68340298D01*
X158409470Y-68237700D01*
X158379707Y-68078049D01*
X158353963Y-67926667D01*
X158331535Y-67776281D01*
X158311718Y-67619617D01*
X158293810Y-67449405D01*
X158277106Y-67258370D01*
X158260902Y-67039242D01*
X158244495Y-66784748D01*
X158227182Y-66487614D01*
X158210395Y-66180585D01*
X158199444Y-65894711D01*
X158195622Y-65592135D01*
X157521196Y-65592135D01*
X157526902Y-65631277D01*
X157534628Y-65644889D01*
X157546782Y-65671175D01*
X157559291Y-65742357D01*
X157570523Y-65846922D01*
X157577573Y-65948278D01*
X157586523Y-66110323D01*
X157596422Y-66286184D01*
X157605644Y-66447092D01*
X157609064Y-66505667D01*
X157616028Y-66633558D01*
X157624130Y-66797354D01*
X157632394Y-66976555D01*
X157639844Y-67150660D01*
X157640275Y-67161275D01*
X157647664Y-67302940D01*
X157656975Y-67420539D01*
X157667199Y-67504563D01*
X157677332Y-67545498D01*
X157681155Y-67547665D01*
X157689485Y-67568987D01*
X157696591Y-67637906D01*
X157701976Y-67745579D01*
X157705143Y-67883163D01*
X157705777Y-67985668D01*
X157707487Y-68166037D01*
X157712435Y-68304340D01*
X157720345Y-68396169D01*
X157730944Y-68437119D01*
X157734000Y-68438889D01*
X157756930Y-68462527D01*
X157762222Y-68495334D01*
X157773252Y-68541206D01*
X157788542Y-68551778D01*
X157815168Y-68575092D01*
X157840713Y-68627322D01*
X157853717Y-68681907D01*
X157852480Y-68699945D01*
X157867982Y-68720385D01*
X157875111Y-68721112D01*
X157898650Y-68744545D01*
X157903333Y-68773182D01*
X157923154Y-68831039D01*
X157958434Y-68875118D01*
X158018390Y-68918849D01*
X158103026Y-68968662D01*
X158193879Y-69015058D01*
X158272486Y-69048539D01*
X158317338Y-69059778D01*
X158351690Y-69078439D01*
X158354888Y-69091020D01*
X158375674Y-69109198D01*
X158400799Y-69104644D01*
X158458728Y-69104040D01*
X158481308Y-69115741D01*
X158533725Y-69140011D01*
X158597676Y-69153729D01*
X158672774Y-69166490D01*
X158721777Y-69180479D01*
X158771651Y-69192473D01*
X158856889Y-69205423D01*
X158933444Y-69213963D01*
X159056216Y-69225895D01*
X159199007Y-69240242D01*
X159300333Y-69250706D01*
X159497888Y-69271445D01*
X159506567Y-69391389D01*
X159517449Y-69464678D01*
X159534550Y-69507107D01*
X159541844Y-69511334D01*
X159554548Y-69537249D01*
X159563950Y-69605810D01*
X159568324Y-69703242D01*
X159568444Y-69723383D01*
X159571718Y-69833358D01*
X159580345Y-69925506D01*
X159592534Y-69981471D01*
X159593916Y-69984439D01*
X159623132Y-70060102D01*
X159660038Y-70188594D01*
X159698398Y-70343889D01*
X159711005Y-70427574D01*
X159711884Y-70492056D01*
X159718168Y-70541340D01*
X159735758Y-70555556D01*
X159755744Y-70580359D01*
X159765737Y-70641349D01*
X159766000Y-70654334D01*
X159773088Y-70719623D01*
X159790518Y-70752258D01*
X159794222Y-70753112D01*
X159818825Y-70776150D01*
X159822444Y-70798144D01*
X159838039Y-70851238D01*
X159875797Y-70918066D01*
X159878055Y-70921274D01*
X159910715Y-70978411D01*
X159917223Y-71015125D01*
X159915684Y-71017353D01*
X159919274Y-71033918D01*
X159930629Y-71035334D01*
X159955368Y-71059455D01*
X159963555Y-71105889D01*
X159973216Y-71158928D01*
X159991777Y-71176445D01*
X160011808Y-71200914D01*
X160020000Y-71258760D01*
X160026450Y-71320653D01*
X160041166Y-71350482D01*
X160072589Y-71384057D01*
X160110825Y-71448189D01*
X160144134Y-71520123D01*
X160160777Y-71577108D01*
X160161111Y-71582966D01*
X160175548Y-71622225D01*
X160189333Y-71628000D01*
X160216741Y-71648875D01*
X160217555Y-71655400D01*
X160237400Y-71690767D01*
X160288241Y-71749107D01*
X160357033Y-71818086D01*
X160430733Y-71885368D01*
X160496299Y-71938620D01*
X160540686Y-71965508D01*
X160546713Y-71966667D01*
X160581216Y-71983500D01*
X160584444Y-71994889D01*
X160606183Y-72021970D01*
X160614682Y-72023112D01*
X160659763Y-72040290D01*
X160684258Y-72058389D01*
X160759200Y-72123093D01*
X160805483Y-72155715D01*
X160832879Y-72164223D01*
X160868654Y-72183133D01*
X160908999Y-72220667D01*
X160958722Y-72262988D01*
X160993666Y-72277112D01*
X161036411Y-72296300D01*
X161077319Y-72332436D01*
X161120577Y-72372526D01*
X161145193Y-72384400D01*
X161192735Y-72393734D01*
X161253114Y-72423137D01*
X161295183Y-72457304D01*
X161296007Y-72458497D01*
X161331537Y-72468941D01*
X161423055Y-72478014D01*
X161570121Y-72485698D01*
X161772296Y-72491971D01*
X162029139Y-72496812D01*
X162149729Y-72498374D01*
X162393636Y-72501565D01*
X162586599Y-72505110D01*
X162734119Y-72509337D01*
X162841698Y-72514570D01*
X162914837Y-72521135D01*
X162959036Y-72529359D01*
X162979797Y-72539568D01*
X162983333Y-72547763D01*
X162995332Y-72567435D01*
X163037315Y-72579685D01*
X163118260Y-72585921D01*
X163237333Y-72587556D01*
X163363292Y-72585625D01*
G37*
X163363292Y-72585625D02*
X163441719Y-72578924D01*
X163481424Y-72566088D01*
X163491333Y-72548242D01*
X163517348Y-72503444D01*
X163592989Y-72478964D01*
X163662974Y-72474667D01*
X163721416Y-72466282D01*
X163745333Y-72446445D01*
X163770370Y-72428772D01*
X163832917Y-72418942D01*
X163858222Y-72418223D01*
X163928909Y-72411690D01*
X163968230Y-72395370D01*
X163971111Y-72388763D01*
X163992419Y-72366898D01*
X164008345Y-72367597D01*
X164056535Y-72361399D01*
X164127674Y-72335495D01*
X164142400Y-72328592D01*
X164250741Y-72277155D01*
X164354835Y-72230250D01*
X164439726Y-72194402D01*
X164490458Y-72176139D01*
X164493222Y-72175502D01*
X164575149Y-72149186D01*
X164658661Y-72108473D01*
X164707564Y-72073793D01*
X164759029Y-72036205D01*
X164833695Y-71994370D01*
X164846000Y-71988408D01*
X164925535Y-71941647D01*
X164988852Y-71889297D01*
X164993890Y-71883646D01*
X165043216Y-71840038D01*
X165079521Y-71825556D01*
X165112908Y-71806450D01*
X165175755Y-71754604D01*
X165258672Y-71678225D01*
X165340853Y-71597162D01*
X165441940Y-71495058D01*
X165538383Y-71398679D01*
X165617480Y-71320667D01*
X165657388Y-71282183D01*
X165713282Y-71221872D01*
X165745774Y-71172208D01*
X165749111Y-71159399D01*
X165770077Y-71115853D01*
X165801763Y-71086322D01*
X165842654Y-71033734D01*
X165878707Y-70947538D01*
X165900882Y-70850411D01*
X165902740Y-70833075D01*
X165921455Y-70797451D01*
X165925500Y-70793093D01*
X165941016Y-70751731D01*
X165946666Y-70691568D01*
X165960805Y-70620543D01*
X165996166Y-70539917D01*
X166042162Y-70467744D01*
X166088209Y-70422077D01*
X166108944Y-70414794D01*
X166141741Y-70396616D01*
X166144222Y-70386223D01*
X166166687Y-70360338D01*
X166181499Y-70358000D01*
X166215881Y-70339246D01*
X166276670Y-70290446D01*
X166352174Y-70222794D01*
X166430699Y-70147482D01*
X166500554Y-70075705D01*
X166550046Y-70018656D01*
X166567555Y-69988416D01*
X166585745Y-69954878D01*
X166630316Y-69902835D01*
X166638111Y-69894899D01*
X166685464Y-69839866D01*
X166708294Y-69798244D01*
X166708666Y-69794839D01*
X166729372Y-69766403D01*
X166736888Y-69765334D01*
X166761261Y-69741996D01*
X166766008Y-69715945D01*
X166783190Y-69654826D01*
X166808342Y-69611773D01*
X166841757Y-69541532D01*
X166849777Y-69493494D01*
X166861029Y-69435891D01*
X166878000Y-69412556D01*
X166901708Y-69372749D01*
X166906222Y-69340335D01*
X166918361Y-69295387D01*
X166934444Y-69285556D01*
X166959482Y-69262697D01*
X166962666Y-69243223D01*
X166979032Y-69205683D01*
X166993020Y-69200889D01*
X167011089Y-69175068D01*
X167016793Y-69105311D01*
X167015620Y-69074807D01*
X167014986Y-68994316D01*
X167022476Y-68939288D01*
X167027600Y-68928993D01*
X167039722Y-68887422D01*
X167045804Y-68799476D01*
X167045821Y-68674902D01*
X167039746Y-68523446D01*
X167029081Y-68372592D01*
X167014937Y-68250329D01*
X166997031Y-68179881D01*
X166974187Y-68156681D01*
X166973522Y-68156667D01*
X166949034Y-68136821D01*
X166952460Y-68114334D01*
X166951219Y-68078088D01*
X166937463Y-68072000D01*
X166912092Y-68048392D01*
X166906222Y-68015556D01*
X166895769Y-67969675D01*
X166881291Y-67959112D01*
X166854363Y-67933840D01*
X166828140Y-67869165D01*
X166809612Y-67783135D01*
X166778052Y-67712563D01*
X166714029Y-67641756D01*
X166637210Y-67592117D01*
X166632295Y-67590154D01*
X166610174Y-67579623D01*
X166593857Y-67562094D01*
X166582287Y-67529543D01*
X166574403Y-67473946D01*
X166569146Y-67387279D01*
X166565458Y-67261519D01*
X166562278Y-67088641D01*
X166561740Y-67055692D01*
X166560052Y-66891286D01*
X166560435Y-66746674D01*
X166562710Y-66631198D01*
X166566703Y-66554197D01*
X166571753Y-66525356D01*
X166588109Y-66479585D01*
X166601794Y-66386052D01*
X166612783Y-66253378D01*
X166621053Y-66090184D01*
X166626580Y-65905089D01*
X166629339Y-65706715D01*
X166629307Y-65503682D01*
X166626460Y-65304610D01*
X166620774Y-65118121D01*
X166612225Y-64952834D01*
X166600788Y-64817371D01*
X166586441Y-64720351D01*
X166576868Y-64685334D01*
X166568964Y-64634962D01*
X166565452Y-64549916D01*
X166566232Y-64480723D01*
X166564492Y-64383246D01*
X166552583Y-64327866D01*
X166541329Y-64318445D01*
X166518618Y-64294306D01*
X166511111Y-64247889D01*
X166501450Y-64194851D01*
X166482888Y-64177334D01*
X166459958Y-64153696D01*
X166454666Y-64120889D01*
X166466485Y-64075029D01*
X166482888Y-64064445D01*
X166507927Y-64041586D01*
X166511111Y-64022112D01*
X166495871Y-63984554D01*
X166482888Y-63979778D01*
X166462921Y-63955293D01*
X166454666Y-63896777D01*
X166445967Y-63831601D01*
X166426444Y-63796334D01*
X166409983Y-63760123D01*
X166399813Y-63687605D01*
X166398222Y-63641112D01*
X166393885Y-63558237D01*
X166382847Y-63501739D01*
X166375166Y-63489083D01*
X166365812Y-63456259D01*
X166360850Y-63381106D01*
X166360987Y-63277618D01*
X166362428Y-63235931D01*
X166364360Y-63108371D01*
X166358073Y-63020190D01*
X166344174Y-62979471D01*
X166343150Y-62978738D01*
X166323122Y-62940584D01*
X166313667Y-62871838D01*
X166313555Y-62863335D01*
X166306354Y-62798710D01*
X166288684Y-62766909D01*
X166285333Y-62766223D01*
X166264118Y-62742071D01*
X166257111Y-62695667D01*
X166247450Y-62642629D01*
X166228888Y-62625112D01*
X166214638Y-62598865D01*
X166204716Y-62527896D01*
X166200687Y-62423858D01*
X166200666Y-62415111D01*
X166197123Y-62311356D01*
X166187767Y-62231017D01*
X166174513Y-62189509D01*
X166172444Y-62187667D01*
X166156529Y-62151730D01*
X166146294Y-62078497D01*
X166144222Y-62021372D01*
X166140641Y-61933676D01*
X166131465Y-61870533D01*
X166123893Y-61852190D01*
X166112148Y-61812540D01*
X166111188Y-61743812D01*
X166111623Y-61738324D01*
X166105945Y-61660277D01*
X166075983Y-61628017D01*
X166046016Y-61592305D01*
X166048939Y-61567847D01*
X166048259Y-61530953D01*
X166034352Y-61524445D01*
X166006654Y-61501635D01*
X166003111Y-61482112D01*
X165987871Y-61444554D01*
X165974888Y-61439778D01*
X165951958Y-61416141D01*
X165946666Y-61383334D01*
X165934847Y-61337474D01*
X165918444Y-61326889D01*
X165895287Y-61303326D01*
X165890222Y-61272111D01*
X165876539Y-61217590D01*
X165860510Y-61198969D01*
X165839417Y-61161134D01*
X165841163Y-61149510D01*
X165828241Y-61113384D01*
X165783442Y-61059904D01*
X165761316Y-61039208D01*
X165671104Y-60960000D01*
X163776190Y-60960000D01*
X163725484Y-61031486D01*
X163677877Y-61096684D01*
X163614736Y-61180831D01*
X163583329Y-61221986D01*
X163528238Y-61308613D01*
X163495844Y-61389346D01*
X163491607Y-61418612D01*
X163482551Y-61474941D01*
X163463111Y-61496223D01*
X163444330Y-61521002D01*
X163435088Y-61581803D01*
X163434888Y-61593335D01*
X163426628Y-61664211D01*
X163406476Y-61707654D01*
X163403823Y-61709647D01*
X163386008Y-61748424D01*
X163388183Y-61805974D01*
X163390197Y-61872404D01*
X163375025Y-61911686D01*
X163365653Y-61948949D01*
X163360094Y-62029228D01*
X163358204Y-62139232D01*
X163359840Y-62265671D01*
X163364861Y-62395255D01*
X163373124Y-62514692D01*
X163382383Y-62596889D01*
X163392555Y-62667445D01*
X163089166Y-62675455D01*
X162785777Y-62683466D01*
X162785777Y-62194266D01*
X162784366Y-62032793D01*
X162780453Y-61890635D01*
X162774522Y-61777540D01*
X162767056Y-61703259D01*
X162760230Y-61678256D01*
X162746340Y-61639018D01*
X162732357Y-61558930D01*
X162720836Y-61453521D01*
X162718684Y-61425667D01*
X162708516Y-61299304D01*
X162696713Y-61177829D01*
X162685686Y-61085872D01*
X162684822Y-61079945D01*
X162666960Y-60960000D01*
X161529888Y-60960530D01*
X161685111Y-61048954D01*
X161797828Y-61119469D01*
X161915525Y-61202632D01*
X161973738Y-61248328D01*
X162107143Y-61359278D01*
X162101149Y-61999251D01*
X162101265Y-62330794D01*
X162108424Y-62607581D01*
X162122741Y-62830872D01*
X162144331Y-63001928D01*
X162173311Y-63122012D01*
X162209796Y-63192383D01*
X162210812Y-63193524D01*
X162326254Y-63281707D01*
X162477492Y-63336213D01*
X162492287Y-63339200D01*
X162525804Y-63344397D01*
X162563212Y-63346431D01*
X162612384Y-63344413D01*
X162681196Y-63337457D01*
X162777522Y-63324675D01*
X162909236Y-63305182D01*
X163084214Y-63278089D01*
X163209111Y-63258468D01*
X163321132Y-63242893D01*
X163437194Y-63231630D01*
X163567177Y-63224346D01*
X163720963Y-63220707D01*
X163908434Y-63220377D01*
X164139472Y-63223024D01*
X164218055Y-63224336D01*
X164411895Y-63227038D01*
X164585680Y-63228100D01*
X164731892Y-63227589D01*
X164843015Y-63225570D01*
X164911534Y-63222107D01*
X164930666Y-63218135D01*
X164907061Y-63177958D01*
X164842908Y-63118950D01*
X164748202Y-63047410D01*
X164632936Y-62969639D01*
X164507105Y-62891935D01*
X164380702Y-62820598D01*
X164263721Y-62761927D01*
X164166157Y-62722222D01*
X164126333Y-62711145D01*
X164081748Y-62698977D01*
X164054970Y-62676626D01*
X164039631Y-62630650D01*
X164029364Y-62547607D01*
X164024914Y-62497053D01*
X164010743Y-62374320D01*
X163990832Y-62253801D01*
X163973078Y-62175563D01*
X163956626Y-62080370D01*
X163953864Y-61975976D01*
X163963478Y-61880474D01*
X163984155Y-61811958D01*
X164000963Y-61791548D01*
X164021590Y-61753476D01*
X164027555Y-61706795D01*
X164042152Y-61607334D01*
X164079799Y-61509974D01*
X164131278Y-61432768D01*
X164187365Y-61393772D01*
X164237071Y-61388841D01*
X164332692Y-61385784D01*
X164463727Y-61384699D01*
X164619674Y-61385682D01*
X164769809Y-61388351D01*
X164973483Y-61393959D01*
X165128697Y-61402050D01*
X165243435Y-61415489D01*
X165325679Y-61437139D01*
X165383413Y-61469862D01*
X165424619Y-61516520D01*
X165457281Y-61579978D01*
X165482288Y-61643857D01*
X165504144Y-61710399D01*
X165518952Y-61779364D01*
X165527673Y-61862614D01*
X165531265Y-61972010D01*
X165530688Y-62119414D01*
X165528944Y-62220784D01*
X165526277Y-62392421D01*
X165527506Y-62524200D01*
X165534746Y-62632681D01*
X165550108Y-62734423D01*
X165575705Y-62845986D01*
X165613650Y-62983927D01*
X165636343Y-63062556D01*
X165710001Y-63337225D01*
X165762745Y-63586476D01*
X165799622Y-63835014D01*
X165806438Y-63895112D01*
X165822592Y-64029034D01*
X165839879Y-64145672D01*
X165856095Y-64231506D01*
X165867714Y-64270800D01*
X165890810Y-64344893D01*
X165911379Y-64468229D01*
X165929162Y-64633655D01*
X165943901Y-64834015D01*
X165955339Y-65062155D01*
X165963217Y-65310919D01*
X165967277Y-65573153D01*
X165967261Y-65841702D01*
X165962911Y-66109412D01*
X165953969Y-66369126D01*
X165947819Y-66491556D01*
X165937234Y-66671455D01*
X165926596Y-66836352D01*
X165916617Y-66976363D01*
X165908009Y-67081605D01*
X165901484Y-67142193D01*
X165900561Y-67147723D01*
X165883012Y-67197117D01*
X165848194Y-67220441D01*
X165787020Y-67217984D01*
X165690406Y-67190036D01*
X165601503Y-67157263D01*
X165496192Y-67118011D01*
X165400166Y-67085955D01*
X165301296Y-67058084D01*
X165187451Y-67031386D01*
X165046500Y-67002849D01*
X164866312Y-66969463D01*
X164789555Y-66955686D01*
X164634198Y-66927103D01*
X164489617Y-66898971D01*
X164369317Y-66874024D01*
X164286802Y-66854999D01*
X164270517Y-66850589D01*
X164203283Y-66839269D01*
X164091470Y-66829674D01*
X163946930Y-66822476D01*
X163781519Y-66818352D01*
X163691961Y-66817647D01*
X163514123Y-66817924D01*
X163379721Y-66820501D01*
X163275754Y-66826804D01*
X163189219Y-66838261D01*
X163107115Y-66856297D01*
X163016440Y-66882341D01*
X162969904Y-66896885D01*
X162840135Y-66939955D01*
X162714462Y-66985076D01*
X162614150Y-67024507D01*
X162588904Y-67035561D01*
X162477609Y-67092517D01*
X162352772Y-67165629D01*
X162229362Y-67245137D01*
X162122344Y-67321278D01*
X162046685Y-67384290D01*
X162033624Y-67397731D01*
X161974952Y-67478026D01*
X161905441Y-67596121D01*
X161833053Y-67736598D01*
X161765748Y-67884035D01*
X161712808Y-68019224D01*
X161676859Y-68115832D01*
X161644456Y-68192818D01*
X161623635Y-68231880D01*
X161600975Y-68288605D01*
X161581037Y-68392216D01*
X161564117Y-68533207D01*
X161550507Y-68702070D01*
X161540503Y-68889300D01*
X161534396Y-69085391D01*
X161533057Y-69222147D01*
X162089550Y-69222147D01*
X162105061Y-69080162D01*
X162124043Y-68976606D01*
X162141455Y-68844547D01*
X162153639Y-68711885D01*
X162153964Y-68707000D01*
X162171354Y-68540608D01*
X162204072Y-68406187D01*
X162259507Y-68290382D01*
X162345049Y-68179837D01*
X162468088Y-68061194D01*
X162549898Y-67991404D01*
X162776386Y-67812914D01*
X162971096Y-67680144D01*
X163133767Y-67593258D01*
X163229035Y-67559675D01*
X163407497Y-67516376D01*
X163553234Y-67487059D01*
X163687420Y-67468951D01*
X163831229Y-67459276D01*
X164005835Y-67455261D01*
X164027555Y-67455048D01*
X164256149Y-67457625D01*
X164449056Y-67470935D01*
X164626289Y-67496557D01*
X164676666Y-67506324D01*
X164803456Y-67533226D01*
X164918326Y-67559451D01*
X165003784Y-67580927D01*
X165029444Y-67588426D01*
X165103425Y-67611178D01*
X165205690Y-67641179D01*
X165283444Y-67663303D01*
X165362375Y-67685657D01*
X165423898Y-67704553D01*
X165482230Y-67725404D01*
X165551589Y-67753622D01*
X165646194Y-67794620D01*
X165757883Y-67843915D01*
X165908230Y-67927993D01*
X166063811Y-68044814D01*
X166209485Y-68180525D01*
X166330113Y-68321276D01*
X166400082Y-68431449D01*
X166450639Y-68580027D01*
X166472229Y-68759563D01*
X166464807Y-68952548D01*
X166428330Y-69141471D01*
X166402042Y-69221505D01*
X166323660Y-69374297D01*
X166205642Y-69535801D01*
X166060008Y-69691972D01*
X165898776Y-69828763D01*
X165856703Y-69858792D01*
X165717088Y-69940328D01*
X165545519Y-70019744D01*
X165365937Y-70087062D01*
X165202284Y-70132301D01*
X165198777Y-70133027D01*
X165091526Y-70157456D01*
X164981796Y-70185872D01*
X164973000Y-70188353D01*
X164811558Y-70232079D01*
X164680025Y-70260536D01*
X164556127Y-70276772D01*
X164417588Y-70283833D01*
X164267444Y-70284884D01*
X164110485Y-70281211D01*
X163951375Y-70272226D01*
X163811372Y-70259392D01*
X163731222Y-70248033D01*
X163605485Y-70225668D01*
X163478226Y-70203536D01*
X163392555Y-70189032D01*
X163204795Y-70157526D01*
X163063295Y-70132655D01*
X162958511Y-70112577D01*
X162880898Y-70095451D01*
X162820912Y-70079435D01*
X162814186Y-70077421D01*
X162717326Y-70056322D01*
X162623055Y-70047556D01*
X162551464Y-70034811D01*
X162475179Y-69991030D01*
X162399870Y-69927612D01*
X162271336Y-69778441D01*
X162173446Y-69601579D01*
X162111187Y-69411367D01*
X162089550Y-69222147D01*
X161533057Y-69222147D01*
X161532482Y-69280835D01*
X161535053Y-69466127D01*
X161542405Y-69631760D01*
X161554830Y-69768228D01*
X161572622Y-69866024D01*
X161573085Y-69867700D01*
X161608576Y-69982126D01*
X161648116Y-70072354D01*
X161703718Y-70161814D01*
X161769526Y-70250772D01*
X161878305Y-70372562D01*
X162001481Y-70467218D01*
X162151505Y-70541860D01*
X162340827Y-70603608D01*
X162423336Y-70624614D01*
X162549986Y-70652577D01*
X162659257Y-70672143D01*
X162737813Y-70681197D01*
X162769417Y-70679514D01*
X162827952Y-70679821D01*
X162850605Y-70691913D01*
X162908989Y-70721416D01*
X163008406Y-70745670D01*
X163151694Y-70764934D01*
X163341692Y-70779465D01*
X163581238Y-70789524D01*
X163873172Y-70795368D01*
X163999333Y-70796543D01*
X164261451Y-70798326D01*
X164472622Y-70799938D01*
X164638342Y-70801716D01*
X164764105Y-70803993D01*
X164855407Y-70807104D01*
X164917742Y-70811384D01*
X164956607Y-70817169D01*
X164977496Y-70824792D01*
X164985905Y-70834589D01*
X164987329Y-70846895D01*
X164987111Y-70856725D01*
X164967847Y-70893368D01*
X164915203Y-70959728D01*
X164836897Y-71046834D01*
X164740649Y-71145716D01*
X164726055Y-71160114D01*
X164574620Y-71299996D01*
X164425624Y-71416744D01*
X164266332Y-71517993D01*
X164084007Y-71611380D01*
X163865911Y-71704540D01*
X163731222Y-71756524D01*
X163449000Y-71862554D01*
X162503555Y-71865221D01*
X162236465Y-71865575D01*
X162019868Y-71864827D01*
X161847821Y-71862753D01*
X161714379Y-71859129D01*
X161613598Y-71853731D01*
X161539535Y-71846336D01*
X161486245Y-71836719D01*
X161450040Y-71825556D01*
X161385197Y-71790380D01*
X161289362Y-71726423D01*
X161173706Y-71642428D01*
X161049403Y-71547138D01*
X160927624Y-71449296D01*
X160819543Y-71357645D01*
X160736332Y-71280927D01*
X160692681Y-71232889D01*
X160658479Y-71168343D01*
X160621806Y-71071244D01*
X160594928Y-70978889D01*
X160565929Y-70877933D01*
X160535275Y-70795412D01*
X160511738Y-70752346D01*
X160467169Y-70683963D01*
X160416589Y-70581175D01*
X160368478Y-70464128D01*
X160331317Y-70352967D01*
X160316030Y-70287445D01*
X160301949Y-70207536D01*
X160280361Y-70092957D01*
X160255178Y-69964315D01*
X160246396Y-69920556D01*
X160220492Y-69786886D01*
X160196866Y-69655318D01*
X160179616Y-69548950D01*
X160176302Y-69525445D01*
X160155159Y-69413493D01*
X160122511Y-69287739D01*
X160103913Y-69229112D01*
X160085744Y-69173992D01*
X160069693Y-69117712D01*
X160055639Y-69056629D01*
X160043462Y-68987100D01*
X160033042Y-68905482D01*
X160024260Y-68808132D01*
X160016995Y-68691407D01*
X160011127Y-68551664D01*
X160006538Y-68385261D01*
X160003106Y-68188554D01*
X160000711Y-67957901D01*
X159999235Y-67689658D01*
X159998556Y-67380184D01*
X159998556Y-67025834D01*
X159999114Y-66622967D01*
X160000109Y-66167939D01*
X160000320Y-66082334D01*
X160001455Y-65640062D01*
X160002573Y-65250339D01*
X160003766Y-64909271D01*
X160005122Y-64612962D01*
X160006734Y-64357519D01*
X160008692Y-64139046D01*
X160011086Y-63953648D01*
X160014006Y-63797431D01*
X160017544Y-63666500D01*
X160021789Y-63556959D01*
X160026833Y-63464914D01*
X160032765Y-63386470D01*
X160039677Y-63317733D01*
X160047658Y-63254807D01*
X160056800Y-63193798D01*
X160067193Y-63130811D01*
X160069197Y-63119000D01*
X160095339Y-62940663D01*
X160116095Y-62751640D01*
X160129116Y-62576042D01*
X160132390Y-62469889D01*
X160138140Y-62319867D01*
X160153006Y-62140927D01*
X160174485Y-61959390D01*
X160191401Y-61849000D01*
X160214729Y-61699572D01*
X160233403Y-61553757D01*
X160245319Y-61429744D01*
X160248562Y-61355112D01*
X160251657Y-61262330D01*
X160260731Y-61190814D01*
X160268870Y-61165593D01*
X160303830Y-61137276D01*
X160375413Y-61095425D01*
X160468426Y-61048887D01*
X160472614Y-61046944D01*
X160655000Y-60962591D01*
X160139944Y-60961296D01*
X159957444Y-60961197D01*
X159823835Y-60962440D01*
X159731569Y-60965748D01*
X159673096Y-60971849D01*
X159640867Y-60981466D01*
X159627333Y-60995327D01*
X159624888Y-61010800D01*
X159608890Y-61071363D01*
X159594207Y-61092282D01*
X159578789Y-61126348D01*
X159594207Y-61141925D01*
X159611126Y-61177091D01*
X159621196Y-61244916D01*
X159624273Y-61326524D01*
X159620215Y-61403040D01*
X159608881Y-61455586D01*
X159596666Y-61468000D01*
X159581918Y-61493920D01*
X159571821Y-61562580D01*
X159568444Y-61651445D01*
X159564456Y-61747306D01*
X159553893Y-61812937D01*
X159540222Y-61834889D01*
X159529097Y-61862380D01*
X159520539Y-61942016D01*
X159514806Y-62069548D01*
X159512155Y-62240725D01*
X159512000Y-62300556D01*
X159512000Y-62766223D01*
X159004000Y-62766223D01*
X158809888Y-62767754D01*
X158659041Y-62772209D01*
X158555238Y-62779378D01*
X158502264Y-62789049D01*
X158496000Y-62794445D01*
X158474143Y-62821363D01*
X158464783Y-62822667D01*
X158426996Y-62842937D01*
X158379164Y-62891837D01*
X158378068Y-62893223D01*
X158327318Y-62942846D01*
X158282643Y-62963776D01*
X158282284Y-62963778D01*
X158246061Y-62979688D01*
X158242000Y-62992000D01*
X158219141Y-63017039D01*
X158199666Y-63020223D01*
X158162109Y-63035462D01*
X158157333Y-63048445D01*
X158134474Y-63073483D01*
X158115000Y-63076667D01*
X158077427Y-63090897D01*
X158072666Y-63102988D01*
X158049374Y-63131649D01*
X158016222Y-63147223D01*
X157970457Y-63178584D01*
X157959777Y-63205569D01*
X157943918Y-63241889D01*
X157931555Y-63246000D01*
X157908398Y-63269563D01*
X157903333Y-63300779D01*
X157889439Y-63355443D01*
X157873187Y-63374190D01*
X157854172Y-63412849D01*
X157857396Y-63430232D01*
X157856908Y-63477962D01*
X157837336Y-63540494D01*
X157808582Y-63593420D01*
X157783388Y-63612669D01*
X157765999Y-63636493D01*
X157762222Y-63667668D01*
X157749262Y-63721695D01*
X157734000Y-63739889D01*
X157716852Y-63776445D01*
X157706840Y-63848002D01*
X157705777Y-63882666D01*
X157700102Y-63957826D01*
X157685762Y-64002563D01*
X157677555Y-64008000D01*
X157661223Y-64033333D01*
X157651033Y-64097891D01*
X157649333Y-64144408D01*
X157645936Y-64227754D01*
X157637305Y-64285472D01*
X157631552Y-64298597D01*
X157618583Y-64335522D01*
X157607322Y-64406866D01*
X157604465Y-64437356D01*
X157587786Y-64621579D01*
X157569637Y-64762750D01*
X157550734Y-64856235D01*
X157533842Y-64895589D01*
X157523468Y-64932563D01*
X157515837Y-65010480D01*
X157510935Y-65116725D01*
X157508749Y-65238680D01*
X157509266Y-65363730D01*
X157512472Y-65479257D01*
X157518356Y-65572645D01*
X157521196Y-65592135D01*
X158195622Y-65592135D01*
X158198554Y-65285076D01*
X158207863Y-64985755D01*
X158223174Y-64706392D01*
X158244111Y-64459206D01*
X158269397Y-64262000D01*
X158287815Y-64137376D01*
X158305789Y-64000934D01*
X158312301Y-63945956D01*
X158344345Y-63799605D01*
X158408686Y-63690932D01*
X158514867Y-63605961D01*
X158562167Y-63580001D01*
X158650955Y-63530761D01*
X158729802Y-63480331D01*
X158747900Y-63466995D01*
X158786495Y-63442699D01*
X158835178Y-63427697D01*
X158906449Y-63420439D01*
X159012807Y-63419376D01*
X159114789Y-63421485D01*
X159413222Y-63429445D01*
X159402777Y-63697556D01*
X159397208Y-63825468D01*
X159391136Y-63941082D01*
X159385546Y-64026423D01*
X159383433Y-64050334D01*
X159367584Y-64235563D01*
X159353685Y-64466243D01*
X159341788Y-64734473D01*
X159331950Y-65032352D01*
X159324223Y-65351979D01*
X159318662Y-65685454D01*
X159315322Y-66024875D01*
X159314257Y-66362341D01*
X159315521Y-66689952D01*
X159319169Y-66999807D01*
X159325255Y-67284004D01*
X159333833Y-67534644D01*
X159344958Y-67743824D01*
X159357027Y-67888556D01*
X159380214Y-68128261D01*
X159393868Y-68320233D01*
X159397929Y-68462484D01*
X159392339Y-68553027D01*
X159377944Y-68589394D01*
X159343217Y-68592751D01*
X159263536Y-68592788D01*
X159150277Y-68589705D01*
X159014822Y-68583701D01*
X158996125Y-68582714D01*
X158635472Y-68563310D01*
X158534350Y-68462188D01*
X158444066Y-68340298D01*
X158409470Y-68237700D01*
X158379707Y-68078049D01*
X158353963Y-67926667D01*
X158331535Y-67776281D01*
X158311718Y-67619617D01*
X158293810Y-67449405D01*
X158277106Y-67258370D01*
X158260902Y-67039242D01*
X158244495Y-66784748D01*
X158227182Y-66487614D01*
X158210395Y-66180585D01*
X158199444Y-65894711D01*
X158195622Y-65592135D01*
X157521196Y-65592135D01*
X157526902Y-65631277D01*
X157534628Y-65644889D01*
X157546782Y-65671175D01*
X157559291Y-65742357D01*
X157570523Y-65846922D01*
X157577573Y-65948278D01*
X157586523Y-66110323D01*
X157596422Y-66286184D01*
X157605644Y-66447092D01*
X157609064Y-66505667D01*
X157616028Y-66633558D01*
X157624130Y-66797354D01*
X157632394Y-66976555D01*
X157639844Y-67150660D01*
X157640275Y-67161275D01*
X157647664Y-67302940D01*
X157656975Y-67420539D01*
X157667199Y-67504563D01*
X157677332Y-67545498D01*
X157681155Y-67547665D01*
X157689485Y-67568987D01*
X157696591Y-67637906D01*
X157701976Y-67745579D01*
X157705143Y-67883163D01*
X157705777Y-67985668D01*
X157707487Y-68166037D01*
X157712435Y-68304340D01*
X157720345Y-68396169D01*
X157730944Y-68437119D01*
X157734000Y-68438889D01*
X157756930Y-68462527D01*
X157762222Y-68495334D01*
X157773252Y-68541206D01*
X157788542Y-68551778D01*
X157815168Y-68575092D01*
X157840713Y-68627322D01*
X157853717Y-68681907D01*
X157852480Y-68699945D01*
X157867982Y-68720385D01*
X157875111Y-68721112D01*
X157898650Y-68744545D01*
X157903333Y-68773182D01*
X157923154Y-68831039D01*
X157958434Y-68875118D01*
X158018390Y-68918849D01*
X158103026Y-68968662D01*
X158193879Y-69015058D01*
X158272486Y-69048539D01*
X158317338Y-69059778D01*
X158351690Y-69078439D01*
X158354888Y-69091020D01*
X158375674Y-69109198D01*
X158400799Y-69104644D01*
X158458728Y-69104040D01*
X158481308Y-69115741D01*
X158533725Y-69140011D01*
X158597676Y-69153729D01*
X158672774Y-69166490D01*
X158721777Y-69180479D01*
X158771651Y-69192473D01*
X158856889Y-69205423D01*
X158933444Y-69213963D01*
X159056216Y-69225895D01*
X159199007Y-69240242D01*
X159300333Y-69250706D01*
X159497888Y-69271445D01*
X159506567Y-69391389D01*
X159517449Y-69464678D01*
X159534550Y-69507107D01*
X159541844Y-69511334D01*
X159554548Y-69537249D01*
X159563950Y-69605810D01*
X159568324Y-69703242D01*
X159568444Y-69723383D01*
X159571718Y-69833358D01*
X159580345Y-69925506D01*
X159592534Y-69981471D01*
X159593916Y-69984439D01*
X159623132Y-70060102D01*
X159660038Y-70188594D01*
X159698398Y-70343889D01*
X159711005Y-70427574D01*
X159711884Y-70492056D01*
X159718168Y-70541340D01*
X159735758Y-70555556D01*
X159755744Y-70580359D01*
X159765737Y-70641349D01*
X159766000Y-70654334D01*
X159773088Y-70719623D01*
X159790518Y-70752258D01*
X159794222Y-70753112D01*
X159818825Y-70776150D01*
X159822444Y-70798144D01*
X159838039Y-70851238D01*
X159875797Y-70918066D01*
X159878055Y-70921274D01*
X159910715Y-70978411D01*
X159917223Y-71015125D01*
X159915684Y-71017353D01*
X159919274Y-71033918D01*
X159930629Y-71035334D01*
X159955368Y-71059455D01*
X159963555Y-71105889D01*
X159973216Y-71158928D01*
X159991777Y-71176445D01*
X160011808Y-71200914D01*
X160020000Y-71258760D01*
X160026450Y-71320653D01*
X160041166Y-71350482D01*
X160072589Y-71384057D01*
X160110825Y-71448189D01*
X160144134Y-71520123D01*
X160160777Y-71577108D01*
X160161111Y-71582966D01*
X160175548Y-71622225D01*
X160189333Y-71628000D01*
X160216741Y-71648875D01*
X160217555Y-71655400D01*
X160237400Y-71690767D01*
X160288241Y-71749107D01*
X160357033Y-71818086D01*
X160430733Y-71885368D01*
X160496299Y-71938620D01*
X160540686Y-71965508D01*
X160546713Y-71966667D01*
X160581216Y-71983500D01*
X160584444Y-71994889D01*
X160606183Y-72021970D01*
X160614682Y-72023112D01*
X160659763Y-72040290D01*
X160684258Y-72058389D01*
X160759200Y-72123093D01*
X160805483Y-72155715D01*
X160832879Y-72164223D01*
X160868654Y-72183133D01*
X160908999Y-72220667D01*
X160958722Y-72262988D01*
X160993666Y-72277112D01*
X161036411Y-72296300D01*
X161077319Y-72332436D01*
X161120577Y-72372526D01*
X161145193Y-72384400D01*
X161192735Y-72393734D01*
X161253114Y-72423137D01*
X161295183Y-72457304D01*
X161296007Y-72458497D01*
X161331537Y-72468941D01*
X161423055Y-72478014D01*
X161570121Y-72485698D01*
X161772296Y-72491971D01*
X162029139Y-72496812D01*
X162149729Y-72498374D01*
X162393636Y-72501565D01*
X162586599Y-72505110D01*
X162734119Y-72509337D01*
X162841698Y-72514570D01*
X162914837Y-72521135D01*
X162959036Y-72529359D01*
X162979797Y-72539568D01*
X162983333Y-72547763D01*
X162995332Y-72567435D01*
X163037315Y-72579685D01*
X163118260Y-72585921D01*
X163237333Y-72587556D01*
X163363292Y-72585625D01*
%TD*%
M02*
