M48
; DRILL file {KiCad (5.1.10)-1} date 11/19/21 11:23:21
; FORMAT={-:-/ absolute / metric / decimal}
; #@! TF.CreationDate,2021-11-19T11:23:21-05:00
; #@! TF.GenerationSoftware,Kicad,Pcbnew,(5.1.10)-1
FMAT,2
METRIC
T1C0.500
T2C0.750
T3C0.800
T4C0.900
%
G90
G05
T1
X170.18Y-63.5
X170.18Y-116.84
X171.18Y-63.5
X171.18Y-116.84
X172.18Y-63.5
X172.18Y-116.84
X173.18Y-63.5
X173.18Y-116.84
T2
X167.64Y-97.79
X168.91Y-99.06
X170.18Y-97.79
X173.99Y-97.79
X175.26Y-99.06
X176.53Y-97.79
T3
X160.02Y-78.74
X160.02Y-88.9
X167.64Y-71.12
X167.64Y-81.28
X176.53Y-71.12
X176.53Y-81.28
X184.15Y-78.74
X184.15Y-88.9
T4
X167.64Y-87.63
X167.64Y-90.17
X167.64Y-106.68
X167.64Y-109.22
X176.53Y-87.63
X176.53Y-90.17
X176.53Y-106.68
X176.53Y-109.22
T0
M30
