%TF.GenerationSoftware,KiCad,Pcbnew,5.99.0+really5.1.12+dfsg1-1*%
%TF.CreationDate,2021-11-22T09:43:57-05:00*%
%TF.ProjectId,N OR,4e204f52-2e6b-4696-9361-645f70636258,rev?*%
%TF.SameCoordinates,Original*%
%TF.FileFunction,Legend,Top*%
%TF.FilePolarity,Positive*%
%FSLAX46Y46*%
G04 Gerber Fmt 4.6, Leading zero omitted, Abs format (unit mm)*
G04 Created by KiCad (PCBNEW 5.99.0+really5.1.12+dfsg1-1) date 2021-11-22 09:43:57*
%MOMM*%
%LPD*%
G01*
G04 APERTURE LIST*
%ADD10C,0.150000*%
%ADD11C,0.100000*%
%ADD12C,0.125000*%
%ADD13C,0.120000*%
G04 APERTURE END LIST*
D10*
X155757619Y-46055595D02*
X156757619Y-46055595D01*
X155757619Y-46627023D01*
X156757619Y-46627023D01*
X156757619Y-47293690D02*
X156757619Y-47484166D01*
X156710000Y-47579404D01*
X156614761Y-47674642D01*
X156424285Y-47722261D01*
X156090952Y-47722261D01*
X155900476Y-47674642D01*
X155805238Y-47579404D01*
X155757619Y-47484166D01*
X155757619Y-47293690D01*
X155805238Y-47198452D01*
X155900476Y-47103214D01*
X156090952Y-47055595D01*
X156424285Y-47055595D01*
X156614761Y-47103214D01*
X156710000Y-47198452D01*
X156757619Y-47293690D01*
X155757619Y-48722261D02*
X156233809Y-48388928D01*
X155757619Y-48150833D02*
X156757619Y-48150833D01*
X156757619Y-48531785D01*
X156710000Y-48627023D01*
X156662380Y-48674642D01*
X156567142Y-48722261D01*
X156424285Y-48722261D01*
X156329047Y-48674642D01*
X156281428Y-48627023D01*
X156233809Y-48531785D01*
X156233809Y-48150833D01*
X156805238Y-49865119D02*
X155519523Y-49007976D01*
X156757619Y-50388928D02*
X156757619Y-50579404D01*
X156710000Y-50674642D01*
X156614761Y-50769880D01*
X156424285Y-50817500D01*
X156090952Y-50817500D01*
X155900476Y-50769880D01*
X155805238Y-50674642D01*
X155757619Y-50579404D01*
X155757619Y-50388928D01*
X155805238Y-50293690D01*
X155900476Y-50198452D01*
X156090952Y-50150833D01*
X156424285Y-50150833D01*
X156614761Y-50198452D01*
X156710000Y-50293690D01*
X156757619Y-50388928D01*
X155757619Y-51817500D02*
X156233809Y-51484166D01*
X155757619Y-51246071D02*
X156757619Y-51246071D01*
X156757619Y-51627023D01*
X156710000Y-51722261D01*
X156662380Y-51769880D01*
X156567142Y-51817500D01*
X156424285Y-51817500D01*
X156329047Y-51769880D01*
X156281428Y-51722261D01*
X156233809Y-51627023D01*
X156233809Y-51246071D01*
X156424285Y-53436547D02*
X155614761Y-53436547D01*
X155519523Y-53388928D01*
X155471904Y-53341309D01*
X155424285Y-53246071D01*
X155424285Y-53103214D01*
X155471904Y-53007976D01*
X155805238Y-53436547D02*
X155757619Y-53341309D01*
X155757619Y-53150833D01*
X155805238Y-53055595D01*
X155852857Y-53007976D01*
X155948095Y-52960357D01*
X156233809Y-52960357D01*
X156329047Y-53007976D01*
X156376666Y-53055595D01*
X156424285Y-53150833D01*
X156424285Y-53341309D01*
X156376666Y-53436547D01*
X155757619Y-54341309D02*
X156281428Y-54341309D01*
X156376666Y-54293690D01*
X156424285Y-54198452D01*
X156424285Y-54007976D01*
X156376666Y-53912738D01*
X155805238Y-54341309D02*
X155757619Y-54246071D01*
X155757619Y-54007976D01*
X155805238Y-53912738D01*
X155900476Y-53865119D01*
X155995714Y-53865119D01*
X156090952Y-53912738D01*
X156138571Y-54007976D01*
X156138571Y-54246071D01*
X156186190Y-54341309D01*
X156424285Y-54674642D02*
X156424285Y-55055595D01*
X156757619Y-54817500D02*
X155900476Y-54817500D01*
X155805238Y-54865119D01*
X155757619Y-54960357D01*
X155757619Y-55055595D01*
X155805238Y-55769880D02*
X155757619Y-55674642D01*
X155757619Y-55484166D01*
X155805238Y-55388928D01*
X155900476Y-55341309D01*
X156281428Y-55341309D01*
X156376666Y-55388928D01*
X156424285Y-55484166D01*
X156424285Y-55674642D01*
X156376666Y-55769880D01*
X156281428Y-55817500D01*
X156186190Y-55817500D01*
X156090952Y-55341309D01*
X122816428Y-46388928D02*
X122768809Y-46531785D01*
X122721190Y-46579404D01*
X122625952Y-46627023D01*
X122483095Y-46627023D01*
X122387857Y-46579404D01*
X122340238Y-46531785D01*
X122292619Y-46436547D01*
X122292619Y-46055595D01*
X123292619Y-46055595D01*
X123292619Y-46388928D01*
X123245000Y-46484166D01*
X123197380Y-46531785D01*
X123102142Y-46579404D01*
X123006904Y-46579404D01*
X122911666Y-46531785D01*
X122864047Y-46484166D01*
X122816428Y-46388928D01*
X122816428Y-46055595D01*
X122387857Y-47627023D02*
X122340238Y-47579404D01*
X122292619Y-47436547D01*
X122292619Y-47341309D01*
X122340238Y-47198452D01*
X122435476Y-47103214D01*
X122530714Y-47055595D01*
X122721190Y-47007976D01*
X122864047Y-47007976D01*
X123054523Y-47055595D01*
X123149761Y-47103214D01*
X123245000Y-47198452D01*
X123292619Y-47341309D01*
X123292619Y-47436547D01*
X123245000Y-47579404D01*
X123197380Y-47627023D01*
X122340238Y-48007976D02*
X122292619Y-48150833D01*
X122292619Y-48388928D01*
X122340238Y-48484166D01*
X122387857Y-48531785D01*
X122483095Y-48579404D01*
X122578333Y-48579404D01*
X122673571Y-48531785D01*
X122721190Y-48484166D01*
X122768809Y-48388928D01*
X122816428Y-48198452D01*
X122864047Y-48103214D01*
X122911666Y-48055595D01*
X123006904Y-48007976D01*
X123102142Y-48007976D01*
X123197380Y-48055595D01*
X123245000Y-48103214D01*
X123292619Y-48198452D01*
X123292619Y-48436547D01*
X123245000Y-48579404D01*
X122340238Y-48960357D02*
X122292619Y-49103214D01*
X122292619Y-49341309D01*
X122340238Y-49436547D01*
X122387857Y-49484166D01*
X122483095Y-49531785D01*
X122578333Y-49531785D01*
X122673571Y-49484166D01*
X122721190Y-49436547D01*
X122768809Y-49341309D01*
X122816428Y-49150833D01*
X122864047Y-49055595D01*
X122911666Y-49007976D01*
X123006904Y-48960357D01*
X123102142Y-48960357D01*
X123197380Y-49007976D01*
X123245000Y-49055595D01*
X123292619Y-49150833D01*
X123292619Y-49388928D01*
X123245000Y-49531785D01*
X122292619Y-51293690D02*
X122768809Y-50960357D01*
X122292619Y-50722261D02*
X123292619Y-50722261D01*
X123292619Y-51103214D01*
X123245000Y-51198452D01*
X123197380Y-51246071D01*
X123102142Y-51293690D01*
X122959285Y-51293690D01*
X122864047Y-51246071D01*
X122816428Y-51198452D01*
X122768809Y-51103214D01*
X122768809Y-50722261D01*
X122292619Y-51865119D02*
X122340238Y-51769880D01*
X122387857Y-51722261D01*
X122483095Y-51674642D01*
X122768809Y-51674642D01*
X122864047Y-51722261D01*
X122911666Y-51769880D01*
X122959285Y-51865119D01*
X122959285Y-52007976D01*
X122911666Y-52103214D01*
X122864047Y-52150833D01*
X122768809Y-52198452D01*
X122483095Y-52198452D01*
X122387857Y-52150833D01*
X122340238Y-52103214D01*
X122292619Y-52007976D01*
X122292619Y-51865119D01*
X122292619Y-52627023D02*
X123292619Y-52627023D01*
X122911666Y-52627023D02*
X122959285Y-52722261D01*
X122959285Y-52912738D01*
X122911666Y-53007976D01*
X122864047Y-53055595D01*
X122768809Y-53103214D01*
X122483095Y-53103214D01*
X122387857Y-53055595D01*
X122340238Y-53007976D01*
X122292619Y-52912738D01*
X122292619Y-52722261D01*
X122340238Y-52627023D01*
X122292619Y-53674642D02*
X122340238Y-53579404D01*
X122387857Y-53531785D01*
X122483095Y-53484166D01*
X122768809Y-53484166D01*
X122864047Y-53531785D01*
X122911666Y-53579404D01*
X122959285Y-53674642D01*
X122959285Y-53817500D01*
X122911666Y-53912738D01*
X122864047Y-53960357D01*
X122768809Y-54007976D01*
X122483095Y-54007976D01*
X122387857Y-53960357D01*
X122340238Y-53912738D01*
X122292619Y-53817500D01*
X122292619Y-53674642D01*
X122959285Y-54293690D02*
X122959285Y-54674642D01*
X123292619Y-54436547D02*
X122435476Y-54436547D01*
X122340238Y-54484166D01*
X122292619Y-54579404D01*
X122292619Y-54674642D01*
X122292619Y-55007976D02*
X122959285Y-55007976D01*
X123292619Y-55007976D02*
X123245000Y-54960357D01*
X123197380Y-55007976D01*
X123245000Y-55055595D01*
X123292619Y-55007976D01*
X123197380Y-55007976D01*
X122340238Y-55912738D02*
X122292619Y-55817500D01*
X122292619Y-55627023D01*
X122340238Y-55531785D01*
X122387857Y-55484166D01*
X122483095Y-55436547D01*
X122768809Y-55436547D01*
X122864047Y-55484166D01*
X122911666Y-55531785D01*
X122959285Y-55627023D01*
X122959285Y-55817500D01*
X122911666Y-55912738D01*
X122340238Y-56293690D02*
X122292619Y-56388928D01*
X122292619Y-56579404D01*
X122340238Y-56674642D01*
X122435476Y-56722261D01*
X122483095Y-56722261D01*
X122578333Y-56674642D01*
X122625952Y-56579404D01*
X122625952Y-56436547D01*
X122673571Y-56341309D01*
X122768809Y-56293690D01*
X122816428Y-56293690D01*
X122911666Y-56341309D01*
X122959285Y-56436547D01*
X122959285Y-56579404D01*
X122911666Y-56674642D01*
X120642619Y-46055595D02*
X121642619Y-46055595D01*
X121642619Y-46293690D01*
X121595000Y-46436547D01*
X121499761Y-46531785D01*
X121404523Y-46579404D01*
X121214047Y-46627023D01*
X121071190Y-46627023D01*
X120880714Y-46579404D01*
X120785476Y-46531785D01*
X120690238Y-46436547D01*
X120642619Y-46293690D01*
X120642619Y-46055595D01*
X120690238Y-47436547D02*
X120642619Y-47341309D01*
X120642619Y-47150833D01*
X120690238Y-47055595D01*
X120785476Y-47007976D01*
X121166428Y-47007976D01*
X121261666Y-47055595D01*
X121309285Y-47150833D01*
X121309285Y-47341309D01*
X121261666Y-47436547D01*
X121166428Y-47484166D01*
X121071190Y-47484166D01*
X120975952Y-47007976D01*
X120690238Y-47865119D02*
X120642619Y-47960357D01*
X120642619Y-48150833D01*
X120690238Y-48246071D01*
X120785476Y-48293690D01*
X120833095Y-48293690D01*
X120928333Y-48246071D01*
X120975952Y-48150833D01*
X120975952Y-48007976D01*
X121023571Y-47912738D01*
X121118809Y-47865119D01*
X121166428Y-47865119D01*
X121261666Y-47912738D01*
X121309285Y-48007976D01*
X121309285Y-48150833D01*
X121261666Y-48246071D01*
X120642619Y-48722261D02*
X121309285Y-48722261D01*
X121642619Y-48722261D02*
X121595000Y-48674642D01*
X121547380Y-48722261D01*
X121595000Y-48769880D01*
X121642619Y-48722261D01*
X121547380Y-48722261D01*
X121309285Y-49627023D02*
X120499761Y-49627023D01*
X120404523Y-49579404D01*
X120356904Y-49531785D01*
X120309285Y-49436547D01*
X120309285Y-49293690D01*
X120356904Y-49198452D01*
X120690238Y-49627023D02*
X120642619Y-49531785D01*
X120642619Y-49341309D01*
X120690238Y-49246071D01*
X120737857Y-49198452D01*
X120833095Y-49150833D01*
X121118809Y-49150833D01*
X121214047Y-49198452D01*
X121261666Y-49246071D01*
X121309285Y-49341309D01*
X121309285Y-49531785D01*
X121261666Y-49627023D01*
X121309285Y-50103214D02*
X120642619Y-50103214D01*
X121214047Y-50103214D02*
X121261666Y-50150833D01*
X121309285Y-50246071D01*
X121309285Y-50388928D01*
X121261666Y-50484166D01*
X121166428Y-50531785D01*
X120642619Y-50531785D01*
X120690238Y-51388928D02*
X120642619Y-51293690D01*
X120642619Y-51103214D01*
X120690238Y-51007976D01*
X120785476Y-50960357D01*
X121166428Y-50960357D01*
X121261666Y-51007976D01*
X121309285Y-51103214D01*
X121309285Y-51293690D01*
X121261666Y-51388928D01*
X121166428Y-51436547D01*
X121071190Y-51436547D01*
X120975952Y-50960357D01*
X120642619Y-52293690D02*
X121642619Y-52293690D01*
X120690238Y-52293690D02*
X120642619Y-52198452D01*
X120642619Y-52007976D01*
X120690238Y-51912738D01*
X120737857Y-51865119D01*
X120833095Y-51817500D01*
X121118809Y-51817500D01*
X121214047Y-51865119D01*
X121261666Y-51912738D01*
X121309285Y-52007976D01*
X121309285Y-52198452D01*
X121261666Y-52293690D01*
X121166428Y-53865119D02*
X121118809Y-54007976D01*
X121071190Y-54055595D01*
X120975952Y-54103214D01*
X120833095Y-54103214D01*
X120737857Y-54055595D01*
X120690238Y-54007976D01*
X120642619Y-53912738D01*
X120642619Y-53531785D01*
X121642619Y-53531785D01*
X121642619Y-53865119D01*
X121595000Y-53960357D01*
X121547380Y-54007976D01*
X121452142Y-54055595D01*
X121356904Y-54055595D01*
X121261666Y-54007976D01*
X121214047Y-53960357D01*
X121166428Y-53865119D01*
X121166428Y-53531785D01*
X121309285Y-54436547D02*
X120642619Y-54674642D01*
X121309285Y-54912738D02*
X120642619Y-54674642D01*
X120404523Y-54579404D01*
X120356904Y-54531785D01*
X120309285Y-54436547D01*
X121642619Y-55912738D02*
X121642619Y-56484166D01*
X120642619Y-56198452D02*
X121642619Y-56198452D01*
X120690238Y-57198452D02*
X120642619Y-57103214D01*
X120642619Y-56912738D01*
X120690238Y-56817500D01*
X120785476Y-56769880D01*
X121166428Y-56769880D01*
X121261666Y-56817500D01*
X121309285Y-56912738D01*
X121309285Y-57103214D01*
X121261666Y-57198452D01*
X121166428Y-57246071D01*
X121071190Y-57246071D01*
X120975952Y-56769880D01*
X120642619Y-57674642D02*
X121309285Y-57674642D01*
X121118809Y-57674642D02*
X121214047Y-57722261D01*
X121261666Y-57769880D01*
X121309285Y-57865119D01*
X121309285Y-57960357D01*
X120642619Y-58293690D02*
X121309285Y-58293690D01*
X121118809Y-58293690D02*
X121214047Y-58341309D01*
X121261666Y-58388928D01*
X121309285Y-58484166D01*
X121309285Y-58579404D01*
X120642619Y-58912738D02*
X121309285Y-58912738D01*
X121642619Y-58912738D02*
X121595000Y-58865119D01*
X121547380Y-58912738D01*
X121595000Y-58960357D01*
X121642619Y-58912738D01*
X121547380Y-58912738D01*
X120690238Y-59769880D02*
X120642619Y-59674642D01*
X120642619Y-59484166D01*
X120690238Y-59388928D01*
X120785476Y-59341309D01*
X121166428Y-59341309D01*
X121261666Y-59388928D01*
X121309285Y-59484166D01*
X121309285Y-59674642D01*
X121261666Y-59769880D01*
X121166428Y-59817500D01*
X121071190Y-59817500D01*
X120975952Y-59341309D01*
X121309285Y-60246071D02*
X120642619Y-60246071D01*
X121214047Y-60246071D02*
X121261666Y-60293690D01*
X121309285Y-60388928D01*
X121309285Y-60531785D01*
X121261666Y-60627023D01*
X121166428Y-60674642D01*
X120642619Y-60674642D01*
X120642619Y-61912738D02*
X121642619Y-61912738D01*
X121642619Y-62150833D01*
X121595000Y-62293690D01*
X121499761Y-62388928D01*
X121404523Y-62436547D01*
X121214047Y-62484166D01*
X121071190Y-62484166D01*
X120880714Y-62436547D01*
X120785476Y-62388928D01*
X120690238Y-62293690D01*
X120642619Y-62150833D01*
X120642619Y-61912738D01*
X121642619Y-63198452D02*
X120928333Y-63198452D01*
X120785476Y-63150833D01*
X120690238Y-63055595D01*
X120642619Y-62912738D01*
X120642619Y-62817500D01*
X121642619Y-63531785D02*
X120642619Y-63865119D01*
X121642619Y-64198452D01*
X121642619Y-65007976D02*
X121642619Y-64531785D01*
X121166428Y-64484166D01*
X121214047Y-64531785D01*
X121261666Y-64627023D01*
X121261666Y-64865119D01*
X121214047Y-64960357D01*
X121166428Y-65007976D01*
X121071190Y-65055595D01*
X120833095Y-65055595D01*
X120737857Y-65007976D01*
X120690238Y-64960357D01*
X120642619Y-64865119D01*
X120642619Y-64627023D01*
X120690238Y-64531785D01*
X120737857Y-64484166D01*
D11*
X130167142Y-98560000D02*
X130071904Y-98512380D01*
X129929047Y-98512380D01*
X129786190Y-98560000D01*
X129690952Y-98655238D01*
X129643333Y-98750476D01*
X129595714Y-98940952D01*
X129595714Y-99083809D01*
X129643333Y-99274285D01*
X129690952Y-99369523D01*
X129786190Y-99464761D01*
X129929047Y-99512380D01*
X130024285Y-99512380D01*
X130167142Y-99464761D01*
X130214761Y-99417142D01*
X130214761Y-99083809D01*
X130024285Y-99083809D01*
X130643333Y-98845714D02*
X130643333Y-99512380D01*
X130643333Y-98940952D02*
X130690952Y-98893333D01*
X130786190Y-98845714D01*
X130929047Y-98845714D01*
X131024285Y-98893333D01*
X131071904Y-98988571D01*
X131071904Y-99512380D01*
X131976666Y-99512380D02*
X131976666Y-98512380D01*
X131976666Y-99464761D02*
X131881428Y-99512380D01*
X131690952Y-99512380D01*
X131595714Y-99464761D01*
X131548095Y-99417142D01*
X131500476Y-99321904D01*
X131500476Y-99036190D01*
X131548095Y-98940952D01*
X131595714Y-98893333D01*
X131690952Y-98845714D01*
X131881428Y-98845714D01*
X131976666Y-98893333D01*
X145859523Y-98512380D02*
X145383333Y-98512380D01*
X145335714Y-98988571D01*
X145383333Y-98940952D01*
X145478571Y-98893333D01*
X145716666Y-98893333D01*
X145811904Y-98940952D01*
X145859523Y-98988571D01*
X145907142Y-99083809D01*
X145907142Y-99321904D01*
X145859523Y-99417142D01*
X145811904Y-99464761D01*
X145716666Y-99512380D01*
X145478571Y-99512380D01*
X145383333Y-99464761D01*
X145335714Y-99417142D01*
X146192857Y-98512380D02*
X146526190Y-99512380D01*
X146859523Y-98512380D01*
X139660476Y-102052380D02*
X139660476Y-101052380D01*
X140231904Y-102052380D01*
X140231904Y-101052380D01*
X140898571Y-101052380D02*
X141089047Y-101052380D01*
X141184285Y-101100000D01*
X141279523Y-101195238D01*
X141327142Y-101385714D01*
X141327142Y-101719047D01*
X141279523Y-101909523D01*
X141184285Y-102004761D01*
X141089047Y-102052380D01*
X140898571Y-102052380D01*
X140803333Y-102004761D01*
X140708095Y-101909523D01*
X140660476Y-101719047D01*
X140660476Y-101385714D01*
X140708095Y-101195238D01*
X140803333Y-101100000D01*
X140898571Y-101052380D01*
X142327142Y-102052380D02*
X141993809Y-101576190D01*
X141755714Y-102052380D02*
X141755714Y-101052380D01*
X142136666Y-101052380D01*
X142231904Y-101100000D01*
X142279523Y-101147619D01*
X142327142Y-101242857D01*
X142327142Y-101385714D01*
X142279523Y-101480952D01*
X142231904Y-101528571D01*
X142136666Y-101576190D01*
X141755714Y-101576190D01*
X130167142Y-47760000D02*
X130071904Y-47712380D01*
X129929047Y-47712380D01*
X129786190Y-47760000D01*
X129690952Y-47855238D01*
X129643333Y-47950476D01*
X129595714Y-48140952D01*
X129595714Y-48283809D01*
X129643333Y-48474285D01*
X129690952Y-48569523D01*
X129786190Y-48664761D01*
X129929047Y-48712380D01*
X130024285Y-48712380D01*
X130167142Y-48664761D01*
X130214761Y-48617142D01*
X130214761Y-48283809D01*
X130024285Y-48283809D01*
X130643333Y-48045714D02*
X130643333Y-48712380D01*
X130643333Y-48140952D02*
X130690952Y-48093333D01*
X130786190Y-48045714D01*
X130929047Y-48045714D01*
X131024285Y-48093333D01*
X131071904Y-48188571D01*
X131071904Y-48712380D01*
X131976666Y-48712380D02*
X131976666Y-47712380D01*
X131976666Y-48664761D02*
X131881428Y-48712380D01*
X131690952Y-48712380D01*
X131595714Y-48664761D01*
X131548095Y-48617142D01*
X131500476Y-48521904D01*
X131500476Y-48236190D01*
X131548095Y-48140952D01*
X131595714Y-48093333D01*
X131690952Y-48045714D01*
X131881428Y-48045714D01*
X131976666Y-48093333D01*
X145859523Y-47712380D02*
X145383333Y-47712380D01*
X145335714Y-48188571D01*
X145383333Y-48140952D01*
X145478571Y-48093333D01*
X145716666Y-48093333D01*
X145811904Y-48140952D01*
X145859523Y-48188571D01*
X145907142Y-48283809D01*
X145907142Y-48521904D01*
X145859523Y-48617142D01*
X145811904Y-48664761D01*
X145716666Y-48712380D01*
X145478571Y-48712380D01*
X145383333Y-48664761D01*
X145335714Y-48617142D01*
X146192857Y-47712380D02*
X146526190Y-48712380D01*
X146859523Y-47712380D01*
D12*
X141041428Y-45648571D02*
X141184285Y-45696190D01*
X141231904Y-45743809D01*
X141279523Y-45839047D01*
X141279523Y-45981904D01*
X141231904Y-46077142D01*
X141184285Y-46124761D01*
X141089047Y-46172380D01*
X140708095Y-46172380D01*
X140708095Y-45172380D01*
X141041428Y-45172380D01*
X141136666Y-45220000D01*
X141184285Y-45267619D01*
X141231904Y-45362857D01*
X141231904Y-45458095D01*
X141184285Y-45553333D01*
X141136666Y-45600952D01*
X141041428Y-45648571D01*
X140708095Y-45648571D01*
X135651904Y-45886666D02*
X136128095Y-45886666D01*
X135556666Y-46172380D02*
X135890000Y-45172380D01*
X136223333Y-46172380D01*
D11*
X135294761Y-101052380D02*
X135485238Y-101052380D01*
X135580476Y-101100000D01*
X135675714Y-101195238D01*
X135723333Y-101385714D01*
X135723333Y-101719047D01*
X135675714Y-101909523D01*
X135580476Y-102004761D01*
X135485238Y-102052380D01*
X135294761Y-102052380D01*
X135199523Y-102004761D01*
X135104285Y-101909523D01*
X135056666Y-101719047D01*
X135056666Y-101385714D01*
X135104285Y-101195238D01*
X135199523Y-101100000D01*
X135294761Y-101052380D01*
X136723333Y-102052380D02*
X136390000Y-101576190D01*
X136151904Y-102052380D02*
X136151904Y-101052380D01*
X136532857Y-101052380D01*
X136628095Y-101100000D01*
X136675714Y-101147619D01*
X136723333Y-101242857D01*
X136723333Y-101385714D01*
X136675714Y-101480952D01*
X136628095Y-101528571D01*
X136532857Y-101576190D01*
X136151904Y-101576190D01*
D13*
%TO.C,Output Header*%
X133290000Y-100390000D02*
X133290000Y-99060000D01*
X134620000Y-100390000D02*
X133290000Y-100390000D01*
X135890000Y-100390000D02*
X135890000Y-97730000D01*
X135890000Y-97730000D02*
X143570000Y-97730000D01*
X135890000Y-100390000D02*
X143570000Y-100390000D01*
X143570000Y-100390000D02*
X143570000Y-97730000D01*
%TO.C,Input Header*%
X133290000Y-49590000D02*
X133290000Y-48260000D01*
X134620000Y-49590000D02*
X133290000Y-49590000D01*
X135890000Y-49590000D02*
X135890000Y-46930000D01*
X135890000Y-46930000D02*
X143570000Y-46930000D01*
X135890000Y-49590000D02*
X143570000Y-49590000D01*
X143570000Y-49590000D02*
X143570000Y-46930000D01*
%TO.C,OR LED*%
X133310000Y-90170000D02*
G75*
G03*
X133310000Y-90170000I-2500000J0D01*
G01*
X129265000Y-92730000D02*
X132355000Y-92730000D01*
X130810462Y-87180000D02*
G75*
G03*
X129265170Y-92730000I-462J-2990000D01*
G01*
X130809538Y-87180000D02*
G75*
G02*
X132354830Y-92730000I462J-2990000D01*
G01*
%TO.C,2.35k*%
X127100000Y-67850000D02*
X124360000Y-67850000D01*
X124360000Y-67850000D02*
X124360000Y-74390000D01*
X124360000Y-74390000D02*
X127100000Y-74390000D01*
X127100000Y-74390000D02*
X127100000Y-67850000D01*
X125730000Y-67080000D02*
X125730000Y-67850000D01*
X125730000Y-75160000D02*
X125730000Y-74390000D01*
X152500000Y-67850000D02*
X149760000Y-67850000D01*
X149760000Y-67850000D02*
X149760000Y-74390000D01*
X149760000Y-74390000D02*
X152500000Y-74390000D01*
X152500000Y-74390000D02*
X152500000Y-67850000D01*
X151130000Y-67080000D02*
X151130000Y-67850000D01*
X151130000Y-75160000D02*
X151130000Y-74390000D01*
%TO.C,10k*%
X142340000Y-56420000D02*
X139600000Y-56420000D01*
X139600000Y-56420000D02*
X139600000Y-62960000D01*
X139600000Y-62960000D02*
X142340000Y-62960000D01*
X142340000Y-62960000D02*
X142340000Y-56420000D01*
X140970000Y-55650000D02*
X140970000Y-56420000D01*
X140970000Y-63730000D02*
X140970000Y-62960000D01*
X137260000Y-56420000D02*
X134520000Y-56420000D01*
X134520000Y-56420000D02*
X134520000Y-62960000D01*
X134520000Y-62960000D02*
X137260000Y-62960000D01*
X137260000Y-62960000D02*
X137260000Y-56420000D01*
X135890000Y-55650000D02*
X135890000Y-56420000D01*
X135890000Y-63730000D02*
X135890000Y-62960000D01*
%TO.C,A LED*%
X135850000Y-71120000D02*
G75*
G03*
X135850000Y-71120000I-2500000J0D01*
G01*
X131805000Y-73680000D02*
X134895000Y-73680000D01*
X133349538Y-68130000D02*
G75*
G02*
X134894830Y-73680000I462J-2990000D01*
G01*
X133350462Y-68130000D02*
G75*
G03*
X131805170Y-73680000I-462J-2990000D01*
G01*
%TO.C,NOR LED*%
X148550000Y-90170000D02*
G75*
G03*
X148550000Y-90170000I-2500000J0D01*
G01*
X144505000Y-92730000D02*
X147595000Y-92730000D01*
X146049538Y-87180000D02*
G75*
G02*
X147594830Y-92730000I462J-2990000D01*
G01*
X146050462Y-87180000D02*
G75*
G03*
X144505170Y-92730000I-462J-2990000D01*
G01*
%TO.C,B LED*%
X146010000Y-71120000D02*
G75*
G03*
X146010000Y-71120000I-2500000J0D01*
G01*
X141965000Y-73680000D02*
X145055000Y-73680000D01*
X143509538Y-68130000D02*
G75*
G02*
X145054830Y-73680000I462J-2990000D01*
G01*
X143510462Y-68130000D02*
G75*
G03*
X141965170Y-73680000I-462J-2990000D01*
G01*
%TO.C,2N2222*%
X145310000Y-76890000D02*
X141710000Y-76890000D01*
X141671522Y-76901522D02*
G75*
G03*
X143510000Y-81340000I1838478J-1838478D01*
G01*
X145348478Y-76901522D02*
G75*
G02*
X143510000Y-81340000I-1838478J-1838478D01*
G01*
X135150000Y-76890000D02*
X131550000Y-76890000D01*
X131511522Y-76901522D02*
G75*
G03*
X133350000Y-81340000I1838478J-1838478D01*
G01*
X135188478Y-76901522D02*
G75*
G02*
X133350000Y-81340000I-1838478J-1838478D01*
G01*
%TO.C,Output Header*%
D10*
X133430000Y-95972380D02*
X133620476Y-95972380D01*
X133715714Y-96020000D01*
X133810952Y-96115238D01*
X133858571Y-96305714D01*
X133858571Y-96639047D01*
X133810952Y-96829523D01*
X133715714Y-96924761D01*
X133620476Y-96972380D01*
X133430000Y-96972380D01*
X133334761Y-96924761D01*
X133239523Y-96829523D01*
X133191904Y-96639047D01*
X133191904Y-96305714D01*
X133239523Y-96115238D01*
X133334761Y-96020000D01*
X133430000Y-95972380D01*
X134715714Y-96305714D02*
X134715714Y-96972380D01*
X134287142Y-96305714D02*
X134287142Y-96829523D01*
X134334761Y-96924761D01*
X134430000Y-96972380D01*
X134572857Y-96972380D01*
X134668095Y-96924761D01*
X134715714Y-96877142D01*
X135049047Y-96305714D02*
X135430000Y-96305714D01*
X135191904Y-95972380D02*
X135191904Y-96829523D01*
X135239523Y-96924761D01*
X135334761Y-96972380D01*
X135430000Y-96972380D01*
X135763333Y-96305714D02*
X135763333Y-97305714D01*
X135763333Y-96353333D02*
X135858571Y-96305714D01*
X136049047Y-96305714D01*
X136144285Y-96353333D01*
X136191904Y-96400952D01*
X136239523Y-96496190D01*
X136239523Y-96781904D01*
X136191904Y-96877142D01*
X136144285Y-96924761D01*
X136049047Y-96972380D01*
X135858571Y-96972380D01*
X135763333Y-96924761D01*
X137096666Y-96305714D02*
X137096666Y-96972380D01*
X136668095Y-96305714D02*
X136668095Y-96829523D01*
X136715714Y-96924761D01*
X136810952Y-96972380D01*
X136953809Y-96972380D01*
X137049047Y-96924761D01*
X137096666Y-96877142D01*
X137430000Y-96305714D02*
X137810952Y-96305714D01*
X137572857Y-95972380D02*
X137572857Y-96829523D01*
X137620476Y-96924761D01*
X137715714Y-96972380D01*
X137810952Y-96972380D01*
X138906190Y-96972380D02*
X138906190Y-95972380D01*
X138906190Y-96448571D02*
X139477619Y-96448571D01*
X139477619Y-96972380D02*
X139477619Y-95972380D01*
X140334761Y-96924761D02*
X140239523Y-96972380D01*
X140049047Y-96972380D01*
X139953809Y-96924761D01*
X139906190Y-96829523D01*
X139906190Y-96448571D01*
X139953809Y-96353333D01*
X140049047Y-96305714D01*
X140239523Y-96305714D01*
X140334761Y-96353333D01*
X140382380Y-96448571D01*
X140382380Y-96543809D01*
X139906190Y-96639047D01*
X141239523Y-96972380D02*
X141239523Y-96448571D01*
X141191904Y-96353333D01*
X141096666Y-96305714D01*
X140906190Y-96305714D01*
X140810952Y-96353333D01*
X141239523Y-96924761D02*
X141144285Y-96972380D01*
X140906190Y-96972380D01*
X140810952Y-96924761D01*
X140763333Y-96829523D01*
X140763333Y-96734285D01*
X140810952Y-96639047D01*
X140906190Y-96591428D01*
X141144285Y-96591428D01*
X141239523Y-96543809D01*
X142144285Y-96972380D02*
X142144285Y-95972380D01*
X142144285Y-96924761D02*
X142049047Y-96972380D01*
X141858571Y-96972380D01*
X141763333Y-96924761D01*
X141715714Y-96877142D01*
X141668095Y-96781904D01*
X141668095Y-96496190D01*
X141715714Y-96400952D01*
X141763333Y-96353333D01*
X141858571Y-96305714D01*
X142049047Y-96305714D01*
X142144285Y-96353333D01*
X143001428Y-96924761D02*
X142906190Y-96972380D01*
X142715714Y-96972380D01*
X142620476Y-96924761D01*
X142572857Y-96829523D01*
X142572857Y-96448571D01*
X142620476Y-96353333D01*
X142715714Y-96305714D01*
X142906190Y-96305714D01*
X143001428Y-96353333D01*
X143049047Y-96448571D01*
X143049047Y-96543809D01*
X142572857Y-96639047D01*
X143477619Y-96972380D02*
X143477619Y-96305714D01*
X143477619Y-96496190D02*
X143525238Y-96400952D01*
X143572857Y-96353333D01*
X143668095Y-96305714D01*
X143763333Y-96305714D01*
%TO.C,Input Header*%
X133810952Y-51252380D02*
X133810952Y-50252380D01*
X134287142Y-50585714D02*
X134287142Y-51252380D01*
X134287142Y-50680952D02*
X134334761Y-50633333D01*
X134430000Y-50585714D01*
X134572857Y-50585714D01*
X134668095Y-50633333D01*
X134715714Y-50728571D01*
X134715714Y-51252380D01*
X135191904Y-50585714D02*
X135191904Y-51585714D01*
X135191904Y-50633333D02*
X135287142Y-50585714D01*
X135477619Y-50585714D01*
X135572857Y-50633333D01*
X135620476Y-50680952D01*
X135668095Y-50776190D01*
X135668095Y-51061904D01*
X135620476Y-51157142D01*
X135572857Y-51204761D01*
X135477619Y-51252380D01*
X135287142Y-51252380D01*
X135191904Y-51204761D01*
X136525238Y-50585714D02*
X136525238Y-51252380D01*
X136096666Y-50585714D02*
X136096666Y-51109523D01*
X136144285Y-51204761D01*
X136239523Y-51252380D01*
X136382380Y-51252380D01*
X136477619Y-51204761D01*
X136525238Y-51157142D01*
X136858571Y-50585714D02*
X137239523Y-50585714D01*
X137001428Y-50252380D02*
X137001428Y-51109523D01*
X137049047Y-51204761D01*
X137144285Y-51252380D01*
X137239523Y-51252380D01*
X138334761Y-51252380D02*
X138334761Y-50252380D01*
X138334761Y-50728571D02*
X138906190Y-50728571D01*
X138906190Y-51252380D02*
X138906190Y-50252380D01*
X139763333Y-51204761D02*
X139668095Y-51252380D01*
X139477619Y-51252380D01*
X139382380Y-51204761D01*
X139334761Y-51109523D01*
X139334761Y-50728571D01*
X139382380Y-50633333D01*
X139477619Y-50585714D01*
X139668095Y-50585714D01*
X139763333Y-50633333D01*
X139810952Y-50728571D01*
X139810952Y-50823809D01*
X139334761Y-50919047D01*
X140668095Y-51252380D02*
X140668095Y-50728571D01*
X140620476Y-50633333D01*
X140525238Y-50585714D01*
X140334761Y-50585714D01*
X140239523Y-50633333D01*
X140668095Y-51204761D02*
X140572857Y-51252380D01*
X140334761Y-51252380D01*
X140239523Y-51204761D01*
X140191904Y-51109523D01*
X140191904Y-51014285D01*
X140239523Y-50919047D01*
X140334761Y-50871428D01*
X140572857Y-50871428D01*
X140668095Y-50823809D01*
X141572857Y-51252380D02*
X141572857Y-50252380D01*
X141572857Y-51204761D02*
X141477619Y-51252380D01*
X141287142Y-51252380D01*
X141191904Y-51204761D01*
X141144285Y-51157142D01*
X141096666Y-51061904D01*
X141096666Y-50776190D01*
X141144285Y-50680952D01*
X141191904Y-50633333D01*
X141287142Y-50585714D01*
X141477619Y-50585714D01*
X141572857Y-50633333D01*
X142430000Y-51204761D02*
X142334761Y-51252380D01*
X142144285Y-51252380D01*
X142049047Y-51204761D01*
X142001428Y-51109523D01*
X142001428Y-50728571D01*
X142049047Y-50633333D01*
X142144285Y-50585714D01*
X142334761Y-50585714D01*
X142430000Y-50633333D01*
X142477619Y-50728571D01*
X142477619Y-50823809D01*
X142001428Y-50919047D01*
X142906190Y-51252380D02*
X142906190Y-50585714D01*
X142906190Y-50776190D02*
X142953809Y-50680952D01*
X143001428Y-50633333D01*
X143096666Y-50585714D01*
X143191904Y-50585714D01*
%TO.C,OR LED*%
X128476666Y-85812380D02*
X128667142Y-85812380D01*
X128762380Y-85860000D01*
X128857619Y-85955238D01*
X128905238Y-86145714D01*
X128905238Y-86479047D01*
X128857619Y-86669523D01*
X128762380Y-86764761D01*
X128667142Y-86812380D01*
X128476666Y-86812380D01*
X128381428Y-86764761D01*
X128286190Y-86669523D01*
X128238571Y-86479047D01*
X128238571Y-86145714D01*
X128286190Y-85955238D01*
X128381428Y-85860000D01*
X128476666Y-85812380D01*
X129905238Y-86812380D02*
X129571904Y-86336190D01*
X129333809Y-86812380D02*
X129333809Y-85812380D01*
X129714761Y-85812380D01*
X129810000Y-85860000D01*
X129857619Y-85907619D01*
X129905238Y-86002857D01*
X129905238Y-86145714D01*
X129857619Y-86240952D01*
X129810000Y-86288571D01*
X129714761Y-86336190D01*
X129333809Y-86336190D01*
X131571904Y-86812380D02*
X131095714Y-86812380D01*
X131095714Y-85812380D01*
X131905238Y-86288571D02*
X132238571Y-86288571D01*
X132381428Y-86812380D02*
X131905238Y-86812380D01*
X131905238Y-85812380D01*
X132381428Y-85812380D01*
X132810000Y-86812380D02*
X132810000Y-85812380D01*
X133048095Y-85812380D01*
X133190952Y-85860000D01*
X133286190Y-85955238D01*
X133333809Y-86050476D01*
X133381428Y-86240952D01*
X133381428Y-86383809D01*
X133333809Y-86574285D01*
X133286190Y-86669523D01*
X133190952Y-86764761D01*
X133048095Y-86812380D01*
X132810000Y-86812380D01*
%TO.C,2.35k*%
X127817619Y-73000952D02*
X127770000Y-72953333D01*
X127722380Y-72858095D01*
X127722380Y-72620000D01*
X127770000Y-72524761D01*
X127817619Y-72477142D01*
X127912857Y-72429523D01*
X128008095Y-72429523D01*
X128150952Y-72477142D01*
X128722380Y-73048571D01*
X128722380Y-72429523D01*
X128627142Y-72000952D02*
X128674761Y-71953333D01*
X128722380Y-72000952D01*
X128674761Y-72048571D01*
X128627142Y-72000952D01*
X128722380Y-72000952D01*
X127722380Y-71620000D02*
X127722380Y-71000952D01*
X128103333Y-71334285D01*
X128103333Y-71191428D01*
X128150952Y-71096190D01*
X128198571Y-71048571D01*
X128293809Y-71000952D01*
X128531904Y-71000952D01*
X128627142Y-71048571D01*
X128674761Y-71096190D01*
X128722380Y-71191428D01*
X128722380Y-71477142D01*
X128674761Y-71572380D01*
X128627142Y-71620000D01*
X127722380Y-70096190D02*
X127722380Y-70572380D01*
X128198571Y-70620000D01*
X128150952Y-70572380D01*
X128103333Y-70477142D01*
X128103333Y-70239047D01*
X128150952Y-70143809D01*
X128198571Y-70096190D01*
X128293809Y-70048571D01*
X128531904Y-70048571D01*
X128627142Y-70096190D01*
X128674761Y-70143809D01*
X128722380Y-70239047D01*
X128722380Y-70477142D01*
X128674761Y-70572380D01*
X128627142Y-70620000D01*
X128722380Y-69620000D02*
X127722380Y-69620000D01*
X128341428Y-69524761D02*
X128722380Y-69239047D01*
X128055714Y-69239047D02*
X128436666Y-69620000D01*
X148137619Y-73000952D02*
X148090000Y-72953333D01*
X148042380Y-72858095D01*
X148042380Y-72620000D01*
X148090000Y-72524761D01*
X148137619Y-72477142D01*
X148232857Y-72429523D01*
X148328095Y-72429523D01*
X148470952Y-72477142D01*
X149042380Y-73048571D01*
X149042380Y-72429523D01*
X148947142Y-72000952D02*
X148994761Y-71953333D01*
X149042380Y-72000952D01*
X148994761Y-72048571D01*
X148947142Y-72000952D01*
X149042380Y-72000952D01*
X148042380Y-71620000D02*
X148042380Y-71000952D01*
X148423333Y-71334285D01*
X148423333Y-71191428D01*
X148470952Y-71096190D01*
X148518571Y-71048571D01*
X148613809Y-71000952D01*
X148851904Y-71000952D01*
X148947142Y-71048571D01*
X148994761Y-71096190D01*
X149042380Y-71191428D01*
X149042380Y-71477142D01*
X148994761Y-71572380D01*
X148947142Y-71620000D01*
X148042380Y-70096190D02*
X148042380Y-70572380D01*
X148518571Y-70620000D01*
X148470952Y-70572380D01*
X148423333Y-70477142D01*
X148423333Y-70239047D01*
X148470952Y-70143809D01*
X148518571Y-70096190D01*
X148613809Y-70048571D01*
X148851904Y-70048571D01*
X148947142Y-70096190D01*
X148994761Y-70143809D01*
X149042380Y-70239047D01*
X149042380Y-70477142D01*
X148994761Y-70572380D01*
X148947142Y-70620000D01*
X149042380Y-69620000D02*
X148042380Y-69620000D01*
X148661428Y-69524761D02*
X149042380Y-69239047D01*
X148375714Y-69239047D02*
X148756666Y-69620000D01*
%TO.C,10k*%
X143792380Y-60285238D02*
X143792380Y-60856666D01*
X143792380Y-60570952D02*
X142792380Y-60570952D01*
X142935238Y-60666190D01*
X143030476Y-60761428D01*
X143078095Y-60856666D01*
X142792380Y-59666190D02*
X142792380Y-59570952D01*
X142840000Y-59475714D01*
X142887619Y-59428095D01*
X142982857Y-59380476D01*
X143173333Y-59332857D01*
X143411428Y-59332857D01*
X143601904Y-59380476D01*
X143697142Y-59428095D01*
X143744761Y-59475714D01*
X143792380Y-59570952D01*
X143792380Y-59666190D01*
X143744761Y-59761428D01*
X143697142Y-59809047D01*
X143601904Y-59856666D01*
X143411428Y-59904285D01*
X143173333Y-59904285D01*
X142982857Y-59856666D01*
X142887619Y-59809047D01*
X142840000Y-59761428D01*
X142792380Y-59666190D01*
X143792380Y-58904285D02*
X142792380Y-58904285D01*
X143411428Y-58809047D02*
X143792380Y-58523333D01*
X143125714Y-58523333D02*
X143506666Y-58904285D01*
X133802380Y-60285238D02*
X133802380Y-60856666D01*
X133802380Y-60570952D02*
X132802380Y-60570952D01*
X132945238Y-60666190D01*
X133040476Y-60761428D01*
X133088095Y-60856666D01*
X132802380Y-59666190D02*
X132802380Y-59570952D01*
X132850000Y-59475714D01*
X132897619Y-59428095D01*
X132992857Y-59380476D01*
X133183333Y-59332857D01*
X133421428Y-59332857D01*
X133611904Y-59380476D01*
X133707142Y-59428095D01*
X133754761Y-59475714D01*
X133802380Y-59570952D01*
X133802380Y-59666190D01*
X133754761Y-59761428D01*
X133707142Y-59809047D01*
X133611904Y-59856666D01*
X133421428Y-59904285D01*
X133183333Y-59904285D01*
X132992857Y-59856666D01*
X132897619Y-59809047D01*
X132850000Y-59761428D01*
X132802380Y-59666190D01*
X133802380Y-58904285D02*
X132802380Y-58904285D01*
X133421428Y-58809047D02*
X133802380Y-58523333D01*
X133135714Y-58523333D02*
X133516666Y-58904285D01*
%TO.C,A LED*%
X131373809Y-67476666D02*
X131850000Y-67476666D01*
X131278571Y-67762380D02*
X131611904Y-66762380D01*
X131945238Y-67762380D01*
X133516666Y-67762380D02*
X133040476Y-67762380D01*
X133040476Y-66762380D01*
X133850000Y-67238571D02*
X134183333Y-67238571D01*
X134326190Y-67762380D02*
X133850000Y-67762380D01*
X133850000Y-66762380D01*
X134326190Y-66762380D01*
X134754761Y-67762380D02*
X134754761Y-66762380D01*
X134992857Y-66762380D01*
X135135714Y-66810000D01*
X135230952Y-66905238D01*
X135278571Y-67000476D01*
X135326190Y-67190952D01*
X135326190Y-67333809D01*
X135278571Y-67524285D01*
X135230952Y-67619523D01*
X135135714Y-67714761D01*
X134992857Y-67762380D01*
X134754761Y-67762380D01*
%TO.C,NOR LED*%
X143002380Y-86812380D02*
X143002380Y-85812380D01*
X143573809Y-86812380D01*
X143573809Y-85812380D01*
X144240476Y-85812380D02*
X144430952Y-85812380D01*
X144526190Y-85860000D01*
X144621428Y-85955238D01*
X144669047Y-86145714D01*
X144669047Y-86479047D01*
X144621428Y-86669523D01*
X144526190Y-86764761D01*
X144430952Y-86812380D01*
X144240476Y-86812380D01*
X144145238Y-86764761D01*
X144050000Y-86669523D01*
X144002380Y-86479047D01*
X144002380Y-86145714D01*
X144050000Y-85955238D01*
X144145238Y-85860000D01*
X144240476Y-85812380D01*
X145669047Y-86812380D02*
X145335714Y-86336190D01*
X145097619Y-86812380D02*
X145097619Y-85812380D01*
X145478571Y-85812380D01*
X145573809Y-85860000D01*
X145621428Y-85907619D01*
X145669047Y-86002857D01*
X145669047Y-86145714D01*
X145621428Y-86240952D01*
X145573809Y-86288571D01*
X145478571Y-86336190D01*
X145097619Y-86336190D01*
X147335714Y-86812380D02*
X146859523Y-86812380D01*
X146859523Y-85812380D01*
X147669047Y-86288571D02*
X148002380Y-86288571D01*
X148145238Y-86812380D02*
X147669047Y-86812380D01*
X147669047Y-85812380D01*
X148145238Y-85812380D01*
X148573809Y-86812380D02*
X148573809Y-85812380D01*
X148811904Y-85812380D01*
X148954761Y-85860000D01*
X149050000Y-85955238D01*
X149097619Y-86050476D01*
X149145238Y-86240952D01*
X149145238Y-86383809D01*
X149097619Y-86574285D01*
X149050000Y-86669523D01*
X148954761Y-86764761D01*
X148811904Y-86812380D01*
X148573809Y-86812380D01*
%TO.C,B LED*%
X141843333Y-67238571D02*
X141986190Y-67286190D01*
X142033809Y-67333809D01*
X142081428Y-67429047D01*
X142081428Y-67571904D01*
X142033809Y-67667142D01*
X141986190Y-67714761D01*
X141890952Y-67762380D01*
X141510000Y-67762380D01*
X141510000Y-66762380D01*
X141843333Y-66762380D01*
X141938571Y-66810000D01*
X141986190Y-66857619D01*
X142033809Y-66952857D01*
X142033809Y-67048095D01*
X141986190Y-67143333D01*
X141938571Y-67190952D01*
X141843333Y-67238571D01*
X141510000Y-67238571D01*
X143748095Y-67762380D02*
X143271904Y-67762380D01*
X143271904Y-66762380D01*
X144081428Y-67238571D02*
X144414761Y-67238571D01*
X144557619Y-67762380D02*
X144081428Y-67762380D01*
X144081428Y-66762380D01*
X144557619Y-66762380D01*
X144986190Y-67762380D02*
X144986190Y-66762380D01*
X145224285Y-66762380D01*
X145367142Y-66810000D01*
X145462380Y-66905238D01*
X145510000Y-67000476D01*
X145557619Y-67190952D01*
X145557619Y-67333809D01*
X145510000Y-67524285D01*
X145462380Y-67619523D01*
X145367142Y-67714761D01*
X145224285Y-67762380D01*
X144986190Y-67762380D01*
%TO.C,2N2222*%
X140795714Y-81847619D02*
X140843333Y-81800000D01*
X140938571Y-81752380D01*
X141176666Y-81752380D01*
X141271904Y-81800000D01*
X141319523Y-81847619D01*
X141367142Y-81942857D01*
X141367142Y-82038095D01*
X141319523Y-82180952D01*
X140748095Y-82752380D01*
X141367142Y-82752380D01*
X141795714Y-82752380D02*
X141795714Y-81752380D01*
X142367142Y-82752380D01*
X142367142Y-81752380D01*
X142795714Y-81847619D02*
X142843333Y-81800000D01*
X142938571Y-81752380D01*
X143176666Y-81752380D01*
X143271904Y-81800000D01*
X143319523Y-81847619D01*
X143367142Y-81942857D01*
X143367142Y-82038095D01*
X143319523Y-82180952D01*
X142748095Y-82752380D01*
X143367142Y-82752380D01*
X143748095Y-81847619D02*
X143795714Y-81800000D01*
X143890952Y-81752380D01*
X144129047Y-81752380D01*
X144224285Y-81800000D01*
X144271904Y-81847619D01*
X144319523Y-81942857D01*
X144319523Y-82038095D01*
X144271904Y-82180952D01*
X143700476Y-82752380D01*
X144319523Y-82752380D01*
X144700476Y-81847619D02*
X144748095Y-81800000D01*
X144843333Y-81752380D01*
X145081428Y-81752380D01*
X145176666Y-81800000D01*
X145224285Y-81847619D01*
X145271904Y-81942857D01*
X145271904Y-82038095D01*
X145224285Y-82180952D01*
X144652857Y-82752380D01*
X145271904Y-82752380D01*
X145652857Y-81847619D02*
X145700476Y-81800000D01*
X145795714Y-81752380D01*
X146033809Y-81752380D01*
X146129047Y-81800000D01*
X146176666Y-81847619D01*
X146224285Y-81942857D01*
X146224285Y-82038095D01*
X146176666Y-82180952D01*
X145605238Y-82752380D01*
X146224285Y-82752380D01*
X130635714Y-81847619D02*
X130683333Y-81800000D01*
X130778571Y-81752380D01*
X131016666Y-81752380D01*
X131111904Y-81800000D01*
X131159523Y-81847619D01*
X131207142Y-81942857D01*
X131207142Y-82038095D01*
X131159523Y-82180952D01*
X130588095Y-82752380D01*
X131207142Y-82752380D01*
X131635714Y-82752380D02*
X131635714Y-81752380D01*
X132207142Y-82752380D01*
X132207142Y-81752380D01*
X132635714Y-81847619D02*
X132683333Y-81800000D01*
X132778571Y-81752380D01*
X133016666Y-81752380D01*
X133111904Y-81800000D01*
X133159523Y-81847619D01*
X133207142Y-81942857D01*
X133207142Y-82038095D01*
X133159523Y-82180952D01*
X132588095Y-82752380D01*
X133207142Y-82752380D01*
X133588095Y-81847619D02*
X133635714Y-81800000D01*
X133730952Y-81752380D01*
X133969047Y-81752380D01*
X134064285Y-81800000D01*
X134111904Y-81847619D01*
X134159523Y-81942857D01*
X134159523Y-82038095D01*
X134111904Y-82180952D01*
X133540476Y-82752380D01*
X134159523Y-82752380D01*
X134540476Y-81847619D02*
X134588095Y-81800000D01*
X134683333Y-81752380D01*
X134921428Y-81752380D01*
X135016666Y-81800000D01*
X135064285Y-81847619D01*
X135111904Y-81942857D01*
X135111904Y-82038095D01*
X135064285Y-82180952D01*
X134492857Y-82752380D01*
X135111904Y-82752380D01*
X135492857Y-81847619D02*
X135540476Y-81800000D01*
X135635714Y-81752380D01*
X135873809Y-81752380D01*
X135969047Y-81800000D01*
X136016666Y-81847619D01*
X136064285Y-81942857D01*
X136064285Y-82038095D01*
X136016666Y-82180952D01*
X135445238Y-82752380D01*
X136064285Y-82752380D01*
%TD*%
M02*
