M48
; DRILL file {KiCad 5.99.0+really5.1.12+dfsg1-1} date Mon 22 Nov 2021 09:43:59 AM
; FORMAT={-:-/ absolute / metric / decimal}
; #@! TF.CreationDate,2021-11-22T09:43:59-05:00
; #@! TF.GenerationSoftware,Kicad,Pcbnew,5.99.0+really5.1.12+dfsg1-1
FMAT,2
METRIC
T1C0.750
T2C0.800
T3C0.900
T4C1.000
%
G90
G05
T1
X132.08Y-78.74
X133.35Y-80.01
X134.62Y-78.74
X142.24Y-78.74
X143.51Y-80.01
X144.78Y-78.74
T2
X125.73Y-66.04
X125.73Y-76.2
X135.89Y-54.61
X135.89Y-64.77
X140.97Y-54.61
X140.97Y-64.77
X151.13Y-66.04
X151.13Y-76.2
T3
X130.81Y-88.9
X130.81Y-91.44
X133.35Y-69.85
X133.35Y-72.39
X143.51Y-69.85
X143.51Y-72.39
X146.05Y-88.9
X146.05Y-91.44
T4
X134.62Y-48.26
X134.62Y-99.06
X137.16Y-48.26
X137.16Y-99.06
X139.7Y-48.26
X139.7Y-99.06
X142.24Y-48.26
X142.24Y-99.06
T0
M30
